<?xml version="1.0" standalone="no"?>
<!DOCTYPE svg PUBLIC "-//W3C//DTD SVG 20010904//EN"
 "http://www.w3.org/TR/2001/REC-SVG-20010904/DTD/svg10.dtd">
<svg version="1.0" xmlns="http://www.w3.org/2000/svg"
 width="4500.000000pt" height="4500.000000pt" viewBox="0 0 4500.000000 4500.000000"
 preserveAspectRatio="xMidYMid meet">

<g transform="translate(0.000000,4500.000000) scale(0.100000,-0.100000)"
fill="#000000" stroke="none">
<path d="M995 44986 c11 -7 211 -129 445 -271 1973 -1197 2845 -1682 4322
-2401 1347 -656 2147 -961 2933 -1119 329 -66 506 -86 807 -92 293 -6 454 5
628 43 463 103 907 423 1138 821 183 314 205 672 72 1156 -22 78 -80 267 -130
421 -159 491 -292 941 -380 1289 -30 118 -47 167 -57 167 -9 0 -12 -7 -9 -17
2 -10 29 -115 60 -233 89 -351 203 -735 363 -1225 175 -539 206 -679 207 -940
1 -190 -6 -239 -51 -380 -141 -438 -600 -852 -1111 -1004 -145 -43 -250 -60
-460 -73 -665 -43 -1513 141 -2542 553 -465 185 -829 352 -1645 751 -1347 658
-2354 1223 -4320 2422 -141 86 -249 146 -264 146 -25 0 -25 -1 -6 -14z"/>
<path d="M2330 44964 c358 -231 1283 -760 1950 -1116 567 -303 2050 -1045
2525 -1263 920 -423 1587 -644 2170 -720 155 -21 455 -23 570 -6 519 79 800
362 891 896 24 137 24 504 0 708 -36 314 -93 607 -196 1011 -115 449 -136 521
-152 524 -12 2 -5 -36 34 -180 233 -877 308 -1299 308 -1734 0 -291 -41 -499
-135 -689 -222 -448 -701 -608 -1450 -484 -514 85 -1143 298 -1926 652 -368
167 -1798 874 -2309 1142 -748 392 -1500 814 -2075 1166 -123 76 -220 129
-235 129 -21 0 -16 -6 30 -36z"/>
<path d="M3665 44986 c33 -22 522 -293 800 -443 423 -228 817 -431 1375 -707
289 -143 651 -327 805 -409 1086 -580 1722 -831 2247 -887 132 -14 225 -13
338 5 175 26 284 78 390 184 116 116 157 225 167 436 12 279 -43 566 -226
1177 -67 223 -101 344 -172 621 -6 22 -16 37 -25 37 -10 0 -14 -6 -10 -17 3
-10 28 -106 56 -213 29 -107 88 -314 131 -460 218 -724 270 -1092 189 -1353
-61 -196 -236 -336 -478 -383 -97 -18 -298 -18 -431 1 -502 73 -1137 329
-2120 854 -152 81 -575 297 -941 479 -787 392 -1299 661 -1930 1016 -74 42
-146 76 -160 76 -24 0 -24 0 -5 -14z"/>
<path d="M5315 44885 c121 -64 513 -261 870 -440 358 -178 736 -370 840 -426
719 -386 1298 -581 1602 -540 96 14 190 58 233 109 56 68 74 132 73 267 -1
129 -9 168 -115 535 -25 85 -71 257 -103 383 -41 161 -62 227 -72 227 -9 0
-12 -7 -9 -17 2 -10 36 -142 75 -293 38 -151 93 -351 121 -445 85 -286 99
-412 60 -538 -26 -83 -84 -145 -168 -179 -50 -20 -73 -23 -197 -22 -115 0
-161 5 -255 27 -274 64 -586 186 -985 387 -159 81 -706 357 -1215 613 -513
259 -935 467 -950 467 -16 0 54 -42 195 -115z"/>
<path d="M6841 44892 c326 -162 480 -212 646 -212 180 0 303 73 375 222 41 86
43 98 16 98 -20 0 -29 -10 -48 -57 -34 -81 -117 -164 -195 -193 -163 -62 -386
-10 -763 179 -124 62 -148 71 -194 70 l-53 -1 216 -106z"/>
<path d="M11480 44996 c0 -33 186 -667 325 -1111 130 -413 153 -495 215 -747
81 -334 120 -575 141 -868 31 -447 -60 -873 -244 -1152 -265 -401 -685 -617
-1362 -700 -166 -20 -754 -17 -960 5 -1397 151 -3000 713 -5130 1801 -992 506
-1955 1055 -3548 2023 -529 321 -849 509 -900 529 -11 4 -17 1 -17 -8 0 -8 51
-42 118 -78 64 -35 328 -192 587 -348 1615 -980 2405 -1437 3335 -1929 2186
-1158 3966 -1819 5360 -1992 783 -97 1425 -47 1883 147 545 231 835 648 898
1289 14 147 6 481 -16 653 -53 415 -135 753 -335 1390 -145 460 -320 1059
-320 1094 0 4 -7 6 -15 6 -8 0 -15 -2 -15 -4z"/>
<path d="M12500 44994 c0 -14 125 -422 257 -834 410 -1288 525 -1779 540
-2310 24 -834 -327 -1416 -1164 -1928 -442 -272 -881 -416 -1473 -487 -183
-22 -676 -31 -900 -16 -1700 113 -3809 866 -6515 2329 -822 444 -1739 979
-3053 1781 -100 61 -185 111 -188 111 -3 0 -4 -12 -2 -27 3 -30 6 -32 878
-557 1393 -840 2374 -1388 3405 -1904 2661 -1330 4763 -1916 6335 -1766 572
54 1058 206 1491 465 1021 612 1360 1294 1198 2414 -63 436 -189 912 -498
1884 -83 261 -177 559 -208 663 -52 174 -58 188 -80 188 -12 0 -23 -3 -23 -6z"/>
<path d="M13530 44997 c0 -2 6 -23 14 -48 33 -100 307 -964 345 -1084 202
-652 323 -1181 377 -1660 25 -212 25 -650 1 -836 -48 -365 -135 -652 -292
-956 -243 -472 -614 -864 -1169 -1234 -658 -440 -1279 -653 -2161 -741 -200
-20 -900 -17 -1135 5 -1254 119 -2578 490 -4160 1167 -1427 611 -2899 1396
-5002 2666 -185 112 -339 204 -342 204 -4 0 -6 -17 -6 -37 l0 -38 613 -367
c1040 -623 1747 -1026 2542 -1448 272 -144 1103 -559 1360 -680 1603 -750
2974 -1215 4205 -1429 1326 -230 2484 -148 3394 241 562 240 1142 645 1502
1049 660 739 868 1609 668 2794 -72 425 -199 911 -425 1620 -56 176 -137 430
-179 565 l-78 245 -36 3 c-20 2 -36 1 -36 -1z"/>
<path d="M14770 44987 c0 -34 106 -377 265 -857 206 -624 215 -652 259 -828
192 -765 175 -1487 -51 -2222 -179 -580 -435 -1028 -873 -1525 -120 -136 -242
-266 -524 -561 -367 -383 -611 -666 -701 -816 -26 -42 -61 -116 -78 -165 -29
-82 -31 -98 -32 -223 0 -154 11 -203 77 -337 299 -604 1499 -1238 3348 -1769
1083 -311 2050 -480 2549 -444 232 17 340 56 494 180 131 106 197 219 205 351
5 92 -9 158 -54 258 -89 193 -226 355 -670 786 -571 555 -742 732 -932 970
-245 307 -397 581 -505 913 -365 1115 -424 2369 -181 3902 87 551 160 896 375
1777 82 337 149 615 149 618 0 3 -11 5 -24 5 -19 0 -26 -7 -31 -32 -4 -18 -67
-278 -140 -578 -202 -824 -273 -1159 -365 -1720 -107 -657 -153 -1186 -153
-1775 -1 -700 66 -1265 219 -1855 116 -446 236 -734 422 -1016 228 -343 430
-566 1131 -1245 479 -463 612 -624 686 -829 70 -194 9 -363 -188 -511 -172
-130 -267 -154 -607 -153 -330 0 -610 36 -1150 144 -876 176 -1951 497 -2730
815 -662 270 -1182 562 -1481 832 -277 252 -402 471 -402 708 0 284 132 473
867 1240 407 425 571 610 745 844 401 539 656 1183 753 1901 19 142 22 211 23
495 0 354 -10 475 -61 755 -55 305 -99 455 -348 1205 -90 270 -180 554 -202
632 -35 130 -41 143 -61 143 -13 0 -23 -6 -23 -13z"/>
<path d="M16267 44918 c-6 -104 -30 -168 -108 -287 -121 -187 -165 -304 -176
-466 -11 -171 19 -265 161 -500 140 -232 161 -330 161 -745 0 -326 -11 -441
-71 -798 -81 -483 -225 -1031 -386 -1471 -146 -399 -285 -673 -510 -1007 -187
-278 -380 -509 -764 -914 -285 -302 -351 -385 -431 -545 -112 -223 -121 -417
-27 -604 104 -208 302 -373 664 -555 220 -109 449 -199 895 -349 441 -149 469
-160 835 -317 564 -243 756 -301 1130 -345 160 -19 396 -19 493 -1 371 71 339
367 -100 929 -84 107 -267 322 -593 697 -279 320 -429 518 -499 656 -35 70
-82 210 -146 434 -254 893 -339 1919 -250 3015 21 246 47 428 106 737 148 768
159 917 104 1383 -37 311 -40 553 -7 692 39 170 92 277 191 386 43 46 49 57
33 57 -12 0 -40 -22 -69 -54 -191 -215 -240 -504 -176 -1049 22 -183 27 -277
27 -447 0 -253 -11 -342 -110 -860 -94 -491 -116 -666 -144 -1135 -14 -230
-14 -870 0 -1085 43 -677 151 -1287 323 -1835 59 -186 75 -227 126 -314 91
-155 227 -323 721 -891 411 -473 601 -738 665 -929 30 -91 33 -180 7 -231 -58
-115 -253 -165 -562 -142 -428 33 -674 103 -1305 377 -300 131 -367 156 -785
297 -461 155 -658 232 -885 343 -413 203 -647 421 -709 662 -50 192 18 427
191 658 36 47 157 183 271 303 259 273 426 461 559 627 412 516 658 992 873
1691 250 812 383 1656 341 2159 -21 253 -53 353 -169 543 -132 216 -157 297
-149 466 8 167 45 271 162 450 91 139 109 186 113 299 5 120 -13 133 -21 15z"/>
<path d="M18473 44843 c-132 -498 -225 -1043 -287 -1678 -163 -1650 -148
-2986 45 -4070 107 -603 283 -1006 529 -1212 74 -62 215 -135 310 -160 101
-28 400 -25 537 5 254 55 449 124 1043 370 569 235 832 331 1162 421 1069 292
2249 345 3533 160 366 -53 600 -105 1185 -265 920 -252 1303 -324 1740 -324
245 0 402 29 533 97 249 131 295 389 151 843 -20 63 -92 261 -161 440 -241
628 -284 794 -298 1155 -7 171 6 425 31 620 144 1119 738 2270 1871 3627 43
51 84 101 92 111 12 16 10 17 -32 17 l-45 0 -149 -182 c-1023 -1249 -1581
-2299 -1767 -3328 -50 -277 -61 -403 -61 -745 0 -216 4 -346 13 -400 35 -210
114 -471 249 -814 209 -534 273 -750 273 -925 0 -250 -143 -387 -455 -437
-110 -17 -410 -15 -587 5 -355 40 -628 100 -1333 293 -723 198 -1031 260
-1585 322 -401 45 -686 61 -1101 61 -737 0 -1371 -75 -2014 -240 -376 -96
-649 -191 -1196 -418 -173 -72 -372 -154 -444 -182 -453 -182 -784 -263 -1006
-246 -501 38 -792 449 -955 1354 -96 534 -142 1093 -151 1812 -9 745 31 1502
123 2370 59 556 163 1130 283 1563 l38 137 -36 0 -37 0 -41 -157z"/>
<path d="M19217 44873 c-117 -398 -209 -843 -271 -1308 -40 -294 -138 -1252
-161 -1555 -59 -807 -6 -1401 171 -1911 137 -396 293 -602 564 -747 229 -123
484 -168 889 -159 332 7 414 18 1401 182 1180 196 1651 250 2280 262 485 9
869 -18 1185 -82 193 -40 344 -80 735 -200 661 -202 851 -242 1110 -232 108 4
151 10 216 31 193 62 322 199 398 427 64 192 80 419 59 849 -17 342 -9 607 27
884 121 946 504 1882 1181 2891 230 343 334 480 527 692 l93 103 -35 0 c-32 0
-43 -10 -134 -112 -137 -155 -173 -200 -308 -389 -778 -1092 -1231 -2130
-1363 -3125 -36 -274 -45 -456 -35 -764 12 -402 11 -680 -5 -780 -35 -232
-102 -393 -210 -501 -118 -118 -242 -162 -461 -161 -228 0 -418 42 -1010 222
-749 228 -952 266 -1557 291 -410 16 -880 -6 -1403 -67 -335 -39 -581 -76
-1330 -199 -1015 -167 -1245 -194 -1543 -181 -414 18 -710 126 -918 335 -94
94 -147 172 -214 315 -127 268 -214 597 -261 986 -22 185 -30 699 -15 960 18
304 105 1196 162 1645 59 479 166 994 287 1398 l39 127 -26 0 c-25 0 -28 -6
-64 -127z"/>
<path d="M20037 44983 c-3 -10 -31 -85 -62 -167 -204 -538 -358 -1276 -431
-2066 -21 -233 -30 -863 -15 -1086 44 -653 159 -1070 365 -1331 147 -185 358
-298 637 -339 92 -13 159 -15 344 -11 247 6 371 20 780 86 481 77 858 124
1300 161 664 55 984 64 2040 56 955 -7 1036 -5 1246 38 392 80 622 292 768
710 43 121 75 252 127 514 207 1050 567 1943 1162 2877 109 173 293 443 366
538 26 33 27 37 9 37 -46 0 -499 -694 -728 -1116 -406 -749 -664 -1465 -831
-2309 -91 -459 -158 -660 -284 -848 -123 -184 -301 -303 -546 -366 -198 -51
-292 -56 -824 -51 -767 8 -1520 4 -1800 -9 -676 -32 -1314 -95 -1890 -187
-599 -96 -701 -108 -970 -108 -233 0 -331 12 -475 59 -490 160 -717 655 -775
1685 -29 527 15 1156 125 1798 93 536 210 967 390 1435 5 11 2 17 -8 17 -8 0
-17 -8 -20 -17z"/>
<path d="M20762 44888 c-169 -376 -289 -763 -388 -1255 -90 -451 -149 -845
-174 -1157 -13 -166 -13 -524 0 -657 43 -439 184 -749 420 -925 63 -47 192
-106 289 -132 88 -24 113 -26 296 -26 190 0 214 2 495 46 560 89 1072 143
1765 185 219 13 456 17 1090 18 871 1 873 1 1087 55 329 84 569 282 732 603
68 134 102 228 187 522 261 897 575 1646 996 2373 81 141 122 207 260 425 21
33 21 37 5 37 -12 0 -49 -51 -118 -162 -497 -801 -880 -1664 -1143 -2578 -89
-306 -145 -471 -200 -582 -175 -351 -422 -547 -791 -626 -202 -43 -258 -46
-1125 -47 -677 0 -877 -4 -1085 -18 -704 -48 -1187 -101 -1770 -194 -444 -70
-698 -41 -922 106 -237 156 -373 420 -434 846 -24 163 -24 593 0 825 48 473
175 1167 287 1568 72 255 178 546 283 776 41 90 40 86 22 86 -8 0 -35 -48 -64
-112z"/>
<path d="M21577 44943 c-142 -239 -284 -567 -376 -875 -97 -321 -208 -864
-258 -1258 -25 -196 -24 -599 1 -734 83 -451 318 -662 785 -707 267 -25 558
11 1186 146 481 105 598 119 1275 160 412 25 611 51 815 105 420 112 701 342
900 740 29 58 96 222 150 365 304 810 598 1459 909 2009 31 54 56 101 56 103
0 2 -7 3 -16 1 -20 -4 -121 -184 -289 -513 -247 -487 -443 -942 -692 -1605
-96 -256 -141 -355 -212 -473 -203 -335 -481 -526 -903 -623 -192 -43 -381
-63 -968 -99 -470 -30 -577 -45 -1045 -146 -524 -114 -760 -149 -1011 -149
-220 0 -376 30 -523 101 -70 34 -102 58 -172 128 -70 70 -94 102 -127 171 -82
169 -115 351 -114 630 0 280 40 586 142 1085 116 571 279 1022 515 1433 27 45
32 62 21 62 -8 0 -30 -26 -49 -57z"/>
<path d="M22396 44912 c-290 -365 -496 -835 -620 -1416 -77 -358 -102 -561
-93 -761 15 -328 136 -502 397 -572 49 -13 105 -17 225 -17 183 0 267 11 605
84 335 73 579 104 1015 130 368 22 522 58 761 178 595 298 1107 952 1419 1810
42 116 195 623 195 647 0 3 -6 5 -13 5 -9 0 -38 -86 -85 -249 -39 -137 -92
-307 -118 -378 -197 -547 -468 -1001 -802 -1345 -379 -389 -747 -587 -1164
-627 -62 -6 -214 -18 -338 -26 -395 -27 -558 -50 -930 -130 -304 -65 -408 -78
-580 -72 -214 7 -317 44 -418 151 -165 174 -188 464 -81 1016 130 666 344
1179 646 1551 89 109 89 109 67 109 -12 0 -46 -35 -88 -88z"/>
<path d="M23460 44939 c-191 -122 -346 -251 -472 -394 -110 -124 -282 -386
-370 -563 -269 -538 -212 -897 158 -989 92 -22 318 -22 484 0 151 20 391 42
640 57 273 17 385 45 536 136 493 296 1065 1109 1168 1663 22 116 21 151 -4
151 -14 0 -20 -9 -25 -37 -29 -194 -78 -349 -174 -548 -247 -514 -683 -1024
-1034 -1211 -136 -72 -225 -92 -486 -109 -269 -18 -525 -41 -675 -61 -386 -50
-623 30 -686 234 -53 169 -2 410 146 704 163 320 370 586 599 768 74 59 262
186 352 237 l38 22 -50 0 c-44 0 -62 -7 -145 -60z"/>
<path d="M31102 44925 c-57 -132 -75 -231 -70 -380 4 -113 9 -143 37 -225 132
-392 528 -749 1212 -1095 647 -327 1360 -511 2194 -565 204 -13 760 -13 991 0
732 42 1407 138 2829 404 1552 291 2134 375 2878 417 265 15 874 6 1087 -15
652 -67 1200 -212 1697 -451 176 -84 255 -129 673 -383 195 -118 358 -217 363
-219 4 -2 7 14 7 35 l0 39 -377 229 c-207 126 -463 272 -567 325 -563 282
-1165 440 -1911 501 -203 16 -852 16 -1080 0 -747 -54 -1302 -136 -2675 -392
-1511 -282 -2054 -363 -2785 -415 -1262 -90 -2315 78 -3210 509 -541 262 -947
565 -1137 851 -119 179 -162 306 -162 480 0 127 17 205 74 338 l38 87 -37 0
c-36 0 -37 -1 -69 -75z"/>
<path d="M33081 44943 c-59 -81 -100 -171 -118 -260 -82 -404 429 -780 1292
-952 261 -52 370 -63 675 -68 763 -14 1482 76 3195 397 1383 259 1962 348
2630 404 578 49 1178 49 1660 1 723 -73 1386 -255 1992 -545 135 -65 360 -187
468 -255 28 -17 67 -42 88 -54 l37 -23 0 29 c0 26 -12 36 -127 105 -1032 617
-2212 882 -3648 818 -819 -37 -1486 -130 -3115 -435 -765 -143 -1164 -213
-1545 -269 -814 -121 -1568 -163 -1975 -112 -646 81 -1191 290 -1440 553 -195
204 -198 428 -9 662 l49 61 -33 0 c-29 0 -39 -8 -76 -57z"/>
<path d="M44600 44941 c74 -32 193 -86 264 -120 71 -33 131 -61 133 -61 1 0 3
6 3 13 0 27 -441 227 -498 227 -31 0 -16 -9 98 -59z"/>
<path d="M30544 42596 c-162 -31 -261 -73 -416 -177 -258 -174 -447 -384 -563
-624 -102 -214 -145 -420 -145 -701 0 -331 47 -593 230 -1285 191 -717 230
-931 230 -1254 0 -175 -15 -290 -55 -429 -86 -296 -284 -548 -583 -743 -232
-152 -546 -253 -932 -300 -197 -24 -670 -23 -930 1 -478 44 -824 100 -1815
296 -965 191 -1255 225 -2020 237 -1288 20 -2158 -163 -2628 -552 -88 -73
-187 -198 -237 -301 -107 -219 -112 -493 -15 -788 84 -259 160 -336 500 -512
273 -141 361 -201 432 -298 77 -104 122 -210 229 -536 147 -446 215 -576 371
-706 241 -199 520 -286 873 -271 162 7 297 27 605 87 416 81 660 100 861 65
257 -45 496 -177 709 -390 124 -124 179 -198 325 -435 232 -376 336 -500 525
-628 171 -115 300 -164 683 -262 952 -243 1373 -448 2014 -982 247 -206 991
-873 1114 -999 168 -173 286 -318 605 -744 324 -433 445 -580 629 -766 276
-278 514 -437 962 -643 416 -191 561 -272 728 -407 192 -155 351 -346 506
-607 535 -906 716 -1176 938 -1397 133 -132 203 -175 288 -175 101 0 158 66
194 224 16 69 19 122 18 346 0 361 -17 478 -89 635 -63 138 -166 287 -399 575
-284 351 -375 541 -363 760 9 177 80 330 218 471 35 36 132 121 214 189 261
215 343 313 436 521 149 333 227 656 304 1257 46 360 78 549 120 719 112 455
289 788 629 1180 891 1030 2089 1817 3426 2251 411 133 734 207 1135 259 175
22 758 26 925 5 768 -95 1425 -359 2240 -902 263 -175 450 -310 957 -692 254
-191 465 -348 468 -348 3 0 5 17 5 39 l0 39 -437 329 c-841 633 -1203 875
-1678 1119 -1232 633 -2439 668 -3938 112 -924 -342 -1754 -838 -2487 -1487
-168 -150 -515 -499 -646 -651 -303 -351 -468 -625 -589 -971 -80 -230 -125
-458 -190 -955 -82 -626 -148 -909 -294 -1248 -91 -211 -174 -311 -436 -528
-312 -257 -415 -410 -445 -657 -21 -173 20 -336 134 -524 65 -109 145 -216
330 -447 196 -243 298 -410 344 -562 41 -133 60 -590 33 -763 -26 -161 -78
-243 -147 -232 -198 32 -524 454 -1049 1357 -210 361 -294 483 -440 638 -196
209 -400 343 -805 530 -579 267 -769 390 -1070 692 -186 186 -298 321 -589
710 -381 511 -512 670 -718 871 -131 128 -833 752 -1056 938 -633 528 -1088
750 -2023 985 -143 35 -299 79 -349 97 -194 68 -352 165 -486 298 -109 109
-175 199 -328 447 -151 247 -230 353 -346 470 -186 187 -434 333 -649 384
-262 62 -499 51 -987 -45 -392 -77 -584 -98 -774 -84 -215 16 -425 93 -590
216 -197 147 -261 264 -430 793 -71 225 -146 391 -218 486 -75 98 -162 159
-432 299 -348 180 -409 243 -494 508 -154 483 -8 864 433 1125 361 214 905
342 1671 393 231 15 872 15 1130 0 569 -34 760 -61 1620 -231 919 -182 1267
-239 1735 -287 250 -25 880 -25 1060 0 403 57 696 157 940 322 473 320 679
772 630 1385 -22 281 -69 509 -225 1100 -196 742 -232 954 -222 1318 4 145 11
221 26 289 56 256 151 445 320 640 113 130 331 302 478 376 133 68 353 104
553 93 498 -29 1026 -183 2255 -658 1077 -416 1413 -528 1780 -593 352 -63
1227 -25 2090 91 365 49 543 77 1450 229 1100 185 1566 250 2095 294 935 79
1720 38 2464 -130 503 -114 1177 -344 1834 -627 l162 -70 0 38 c0 35 -3 39
-47 57 -500 212 -847 345 -1218 466 -611 199 -1038 287 -1695 349 -184 17
-1088 17 -1310 0 -659 -51 -1191 -123 -2330 -317 -1127 -191 -1626 -262 -2200
-309 -463 -39 -971 -47 -1177 -21 -367 49 -767 177 -1818 585 -1063 413 -1547
568 -2035 651 -160 27 -517 36 -626 15z"/>
<path d="M2 41116 l3 -36 200 -91 c249 -112 980 -475 1300 -644 267 -142 646
-347 1450 -787 941 -514 1646 -878 2170 -1118 1102 -506 2058 -823 2970 -985
257 -46 811 -125 1535 -220 1174 -154 1638 -229 2125 -341 755 -174 1206 -409
1354 -704 52 -104 65 -170 58 -300 -5 -125 -35 -226 -108 -374 -128 -257 -320
-497 -675 -846 -370 -363 -854 -760 -1459 -1197 -1999 -1442 -3662 -2199
-5288 -2408 -487 -62 -1054 -66 -1552 -9 -571 64 -1193 224 -1750 449 -716
289 -1342 658 -2211 1301 -63 46 -116 84 -119 84 -3 0 -5 -18 -5 -39 l0 -40
183 -133 c954 -700 1695 -1105 2532 -1384 751 -250 1437 -355 2220 -341 421 8
764 42 1169 118 1497 280 3129 1076 4966 2422 1288 945 1967 1644 2136 2202
24 79 27 108 28 230 0 127 -2 147 -26 213 -40 109 -83 177 -178 273 -338 344
-1041 561 -2495 769 -154 22 -572 78 -930 125 -678 90 -1092 148 -1355 191
-922 151 -1877 455 -2960 944 -608 274 -1215 584 -2220 1133 -1020 557 -1155
630 -1440 782 -511 271 -1490 752 -1608 789 -22 7 -23 5 -20 -28z"/>
<path d="M40167 40999 c-680 -27 -1233 -142 -1718 -356 -85 -37 -320 -151
-524 -253 -412 -207 -552 -269 -765 -340 -431 -144 -849 -155 -1192 -30 -200
73 -369 179 -718 450 -265 206 -384 287 -525 357 -194 97 -322 128 -530 127
-120 -1 -166 -5 -228 -22 -190 -52 -433 -169 -972 -469 -198 -110 -405 -223
-460 -250 -205 -103 -426 -179 -780 -267 -292 -73 -349 -98 -429 -187 -126
-140 -250 -541 -416 -1344 -95 -462 -155 -679 -247 -894 -164 -384 -433 -693
-843 -966 -408 -272 -886 -427 -1505 -487 -192 -18 -725 -15 -975 6 -505 42
-929 109 -1895 300 -935 185 -1035 199 -1540 212 -465 12 -835 -36 -1195 -155
-325 -108 -534 -244 -616 -402 -24 -46 -29 -66 -29 -134 0 -68 4 -89 29 -139
74 -151 303 -310 641 -444 55 -22 323 -114 595 -205 1122 -373 1913 -693 2782
-1124 1711 -848 3092 -1846 4618 -3338 329 -321 491 -466 680 -609 400 -302
717 -425 1014 -395 222 23 434 145 629 364 181 204 305 392 660 1000 134 231
291 494 347 585 1025 1651 2579 2962 4355 3672 687 275 1320 437 1990 510 190
21 851 17 1035 -5 990 -121 1817 -461 2842 -1168 156 -108 547 -391 682 -494
l36 -27 0 30 c0 28 -17 43 -207 184 -797 592 -1358 925 -1981 1177 -1083 438
-2256 486 -3507 144 -2144 -585 -4071 -2044 -5287 -4000 -58 -92 -216 -359
-353 -593 -422 -726 -616 -992 -850 -1169 -83 -62 -207 -125 -290 -146 -328
-85 -717 65 -1204 463 -155 127 -276 239 -583 539 -1455 1423 -2851 2438
-4488 3262 -925 466 -1778 812 -2995 1216 -607 201 -766 270 -954 413 -135
103 -196 202 -189 306 5 81 30 128 103 202 135 137 367 249 690 334 267 71
522 100 880 100 518 0 689 -22 1570 -196 1305 -258 1752 -320 2396 -331 565
-10 955 35 1349 154 696 210 1274 661 1549 1210 130 260 194 477 311 1048 85
414 206 886 275 1069 64 171 135 266 238 317 35 18 158 55 311 94 288 72 506
143 663 213 110 49 296 149 713 382 404 226 672 349 849 392 112 26 323 22
444 -11 239 -63 379 -148 857 -519 343 -267 566 -384 843 -444 89 -19 133 -22
337 -22 202 -1 251 2 351 21 305 59 537 148 1064 411 586 292 764 367 1070
452 277 76 575 127 940 161 174 16 1557 24 1825 10 326 -17 560 -44 850 -97
571 -105 1387 -389 2226 -775 94 -44 174 -79 178 -79 3 0 6 11 6 24 0 20 -14
30 -92 66 -614 283 -1153 494 -1653 646 -416 127 -765 197 -1195 239 -278 28
-1437 43 -1893 24z"/>
<path d="M0 40018 c1 -20 46 -45 388 -215 452 -224 793 -404 1537 -811 1230
-673 1562 -849 2085 -1110 1122 -560 2075 -943 2945 -1181 440 -121 880 -155
1735 -132 1120 29 1467 26 1815 -19 364 -47 588 -115 826 -251 276 -158 419
-292 419 -391 0 -117 -113 -194 -525 -358 -126 -50 -284 -118 -350 -151 -203
-100 -472 -318 -621 -503 -132 -163 -182 -265 -350 -711 -201 -534 -565 -984
-904 -1114 -195 -76 -187 -75 -765 -76 -622 -1 -626 -1 -1040 -112 -261 -69
-611 -178 -1056 -328 -826 -278 -1154 -367 -1544 -421 -161 -22 -536 -30 -706
-15 -714 63 -1506 373 -2389 935 -271 172 -564 380 -1048 744 -243 182 -445
332 -447 332 -3 0 -5 -12 -5 -27 0 -25 46 -62 423 -344 608 -456 924 -675
1268 -881 677 -405 1349 -675 1904 -767 232 -38 319 -45 575 -45 345 1 583 32
955 125 236 59 342 91 985 304 647 214 901 292 1185 365 353 90 521 105 968
89 327 -13 474 -4 628 35 296 75 547 284 795 661 131 200 207 361 328 693 116
319 212 478 403 663 241 235 415 343 793 492 328 129 455 194 527 269 155 160
25 351 -402 591 -410 231 -935 302 -2005 274 -601 -16 -1542 -15 -1700 1 -300
31 -462 61 -740 141 -926 265 -1848 643 -3035 1245 -475 241 -613 314 -1670
891 -445 243 -931 506 -1080 585 -284 151 -1044 533 -1082 545 -19 5 -23 3
-23 -17z"/>
<path d="M40910 39980 c-562 -39 -986 -97 -2195 -300 -1059 -178 -1407 -230
-1895 -284 -558 -62 -871 -80 -1405 -80 -586 -1 -727 13 -1372 138 -384 75
-508 89 -723 83 -149 -4 -202 -9 -270 -27 -346 -91 -632 -334 -935 -790 -214
-324 -302 -511 -588 -1255 -165 -430 -234 -592 -344 -808 -168 -331 -358 -585
-578 -774 -235 -203 -372 -260 -1170 -492 -209 -60 -443 -131 -520 -157 -628
-208 -947 -431 -1020 -709 -74 -287 162 -659 708 -1114 234 -194 543 -418 982
-711 127 -84 322 -219 435 -300 738 -528 1197 -762 1650 -842 112 -19 404 -17
512 5 380 77 737 313 1086 720 90 106 190 237 357 467 315 436 674 850 1111
1280 1044 1029 2279 1809 3635 2295 661 238 1270 380 1924 451 201 21 790 30
1006 15 1248 -87 2336 -509 3612 -1400 70 -50 87 -57 87 -42 0 13 -67 64 -237
178 -715 480 -1296 777 -1943 994 -829 277 -1718 368 -2621 269 -1472 -162
-3072 -824 -4429 -1833 -858 -638 -1567 -1362 -2237 -2284 -199 -273 -284
-375 -457 -549 -292 -292 -544 -448 -839 -519 -303 -73 -601 -44 -962 92 -325
123 -698 340 -1202 700 -114 82 -341 239 -503 348 -653 439 -972 686 -1250
964 -165 167 -274 309 -339 444 -57 120 -71 171 -71 266 0 221 175 419 525
594 223 111 456 192 1030 358 706 205 874 269 1057 407 280 210 492 481 699
892 105 210 180 387 353 838 229 597 339 838 493 1087 356 573 691 847 1113
911 208 31 372 15 927 -91 615 -118 944 -144 1580 -125 782 24 1474 102 2633
296 212 36 570 96 795 134 872 146 1412 213 1935 240 643 33 1211 -22 1730
-166 588 -164 1347 -467 2048 -818 142 -71 172 -83 172 -68 0 38 -912 455
-1415 647 -630 240 -1064 353 -1575 411 -168 19 -894 28 -1100 14z"/>
<path d="M41020 39284 c-19 -2 -105 -8 -190 -14 -426 -30 -885 -94 -1965 -275
-1081 -181 -1477 -241 -1960 -294 -741 -82 -1081 -94 -2395 -81 -439 4 -525 2
-660 -13 -515 -59 -851 -200 -1124 -471 -231 -229 -369 -468 -566 -976 -241
-624 -400 -953 -608 -1257 -155 -225 -365 -454 -561 -611 -126 -102 -400 -283
-696 -462 -420 -254 -561 -354 -678 -480 -38 -41 -81 -101 -99 -138 -31 -63
-33 -73 -33 -177 0 -108 1 -111 41 -195 103 -214 318 -433 726 -741 521 -392
952 -612 1327 -674 78 -13 138 -16 254 -12 199 6 303 32 482 121 289 144 516
359 977 926 543 665 758 902 1144 1261 785 729 1636 1318 2573 1783 1162 576
2349 914 3462 987 274 17 857 7 1109 -20 1167 -127 2206 -513 3335 -1240 49
-31 82 -46 84 -39 6 17 -26 39 -226 162 -875 538 -1681 871 -2513 1040 -474
96 -834 130 -1355 130 -652 1 -1194 -67 -1846 -229 -1772 -441 -3491 -1415
-4843 -2745 -302 -297 -421 -430 -847 -951 -338 -413 -428 -517 -573 -663
-488 -491 -906 -608 -1481 -415 -441 148 -1119 599 -1521 1010 -185 191 -261
311 -286 455 -10 62 -9 80 6 137 23 84 79 168 166 251 125 117 215 179 645
441 299 182 572 364 695 462 115 92 308 286 408 411 276 345 484 744 746 1432
167 435 320 719 495 914 286 318 616 474 1146 542 151 20 458 23 1490 15 569
-4 911 12 1475 70 550 56 942 114 2240 333 1287 216 1756 270 2375 270 625 0
949 -54 1560 -259 544 -182 1121 -430 1800 -774 127 -64 233 -117 238 -119 4
-2 7 4 7 13 0 30 -882 455 -1350 650 -544 227 -1073 396 -1420 454 -271 45
-381 53 -785 56 -214 2 -406 1 -425 -1z"/>
<path d="M0 38906 c0 -9 113 -72 283 -159 319 -163 618 -323 1313 -703 664
-362 884 -478 1444 -758 1310 -654 2528 -1162 3380 -1411 978 -285 1441 -481
1741 -738 525 -449 261 -991 -712 -1461 -687 -332 -1751 -621 -2494 -677 -255
-19 -673 13 -990 76 -586 116 -1149 340 -1730 688 -354 212 -636 410 -1370
962 -474 357 -765 572 -838 619 -23 16 -27 16 -27 3 0 -9 82 -75 183 -148 100
-73 407 -302 682 -509 713 -537 1004 -741 1355 -952 856 -513 1708 -768 2560
-768 693 0 1927 314 2698 686 312 150 519 285 688 447 206 198 291 371 282
577 -7 148 -57 259 -173 388 -264 291 -781 524 -1840 832 -991 288 -2570 971
-4060 1756 -132 69 -514 276 -850 459 -741 404 -1498 805 -1519 805 -3 0 -6
-6 -6 -14z"/>
<path d="M15529 38877 c-81 -34 -117 -59 -180 -124 -75 -77 -129 -159 -188
-285 -97 -206 -137 -370 -129 -520 7 -117 51 -211 134 -287 118 -108 266 -174
824 -367 373 -129 578 -59 605 206 17 173 -70 480 -227 795 -146 291 -295 463
-487 558 -81 40 -88 42 -190 45 -93 2 -113 0 -162 -21z m240 -32 c207 -55 395
-249 557 -575 196 -393 268 -721 193 -876 -67 -139 -255 -153 -552 -43 -45 17
-172 63 -282 104 -244 88 -337 130 -420 190 -195 139 -234 319 -135 616 104
314 263 524 439 580 69 22 129 23 200 4z"/>
<path d="M41035 38594 c-22 -2 -103 -8 -180 -14 -423 -33 -819 -89 -1844 -261
-1354 -227 -1835 -295 -2486 -349 -580 -48 -980 -57 -1701 -40 -420 10 -572
10 -689 1 -279 -22 -475 -67 -642 -146 -314 -148 -488 -377 -587 -770 -29
-114 -56 -311 -86 -625 -49 -509 -80 -706 -151 -933 -72 -234 -165 -404 -289
-527 -103 -104 -162 -152 -490 -400 -541 -409 -729 -591 -836 -805 -78 -157
-81 -286 -11 -420 48 -90 184 -224 272 -266 69 -33 72 -34 200 -34 123 1 134
2 212 33 170 68 362 211 567 423 233 240 445 511 866 1109 479 679 527 732
711 787 43 13 110 17 334 18 285 2 321 5 410 32 157 49 293 166 363 313 53
112 67 175 97 420 41 337 83 448 221 586 104 104 227 185 439 289 447 219 957
378 2111 655 274 66 632 156 794 200 677 183 1192 271 1812 311 239 15 888 6
1113 -15 1137 -110 2180 -453 3258 -1073 71 -41 140 -81 153 -90 23 -15 24
-15 24 14 0 27 -10 35 -122 100 -1564 912 -3147 1261 -4853 1072 -472 -52
-971 -152 -1495 -299 -80 -23 -323 -84 -540 -136 -1309 -314 -1800 -463 -2260
-685 -366 -177 -551 -341 -630 -557 -34 -94 -44 -147 -71 -370 -34 -290 -80
-422 -186 -534 -73 -77 -140 -120 -240 -155 -77 -26 -84 -27 -398 -33 -299 -6
-324 -8 -385 -29 -121 -42 -174 -85 -302 -245 -74 -92 -138 -180 -517 -716
-522 -738 -901 -1148 -1208 -1308 -248 -129 -435 -104 -608 80 -230 244 -189
466 149 804 143 142 237 219 611 504 493 375 542 424 658 656 141 280 198 540
257 1164 44 466 69 620 131 810 129 394 393 615 843 705 221 44 326 49 891 39
950 -16 1406 -2 2090 67 530 53 977 118 2090 304 473 79 968 160 1100 179
1036 151 1691 163 2245 40 581 -130 1540 -530 2562 -1070 98 -52 180 -94 184
-94 3 0 4 12 2 26 -3 24 -34 43 -308 185 -991 514 -1903 888 -2454 1004 -258
55 -392 67 -791 70 -203 1 -388 1 -410 -1z"/>
<path d="M0 38123 c0 -13 36 -36 125 -82 182 -92 739 -393 1395 -753 1136
-623 1766 -952 2325 -1215 235 -111 309 -140 685 -268 527 -179 744 -259 988
-364 468 -200 777 -415 881 -611 41 -77 63 -170 63 -271 1 -354 -308 -619
-896 -769 -526 -134 -1086 -127 -1676 20 -523 130 -1039 372 -1606 751 -265
177 -440 304 -1019 739 -791 595 -1265 930 -1265 893 1 -12 50 -51 140 -111
245 -163 542 -379 1141 -829 918 -690 1230 -898 1689 -1127 594 -296 1130
-436 1726 -453 491 -13 936 67 1280 231 392 187 555 436 504 767 -35 226 -217
420 -585 622 -280 154 -619 288 -1400 554 -349 119 -418 146 -685 273 -583
277 -1146 573 -2300 1205 -603 331 -1065 580 -1275 690 -82 43 -169 89 -192
102 -39 22 -43 22 -43 6z"/>
<path d="M0 37333 c0 -26 14 -36 223 -147 122 -66 526 -286 897 -489 1232
-674 1764 -953 2360 -1237 271 -129 282 -133 617 -229 455 -130 632 -202 729
-297 92 -89 83 -158 -35 -265 -124 -114 -232 -146 -461 -136 -226 10 -508 68
-805 168 -245 82 -448 188 -795 417 -262 172 -456 312 -1073 776 -611 459
-781 581 -1077 782 -187 126 -539 351 -568 361 -10 4 -13 -2 -10 -22 3 -23 27
-42 173 -134 416 -260 711 -469 1520 -1076 768 -576 998 -736 1335 -930 244
-141 445 -221 745 -298 357 -92 627 -115 827 -70 112 24 264 138 313 234 42
80 11 180 -78 250 -114 92 -299 164 -753 294 -337 97 -369 110 -934 391 -582
289 -890 452 -2045 1084 -379 207 -755 412 -835 455 -80 42 -173 93 -207 112
l-63 34 0 -28z"/>
<path d="M15220 35456 c-393 -57 -564 -158 -860 -511 -128 -153 -258 -283
-333 -334 -80 -54 -234 -123 -585 -260 -359 -140 -562 -233 -672 -306 -80 -53
-146 -134 -199 -245 -32 -68 -35 -82 -35 -160 1 -76 6 -99 49 -215 44 -118 48
-138 48 -215 0 -81 -4 -97 -85 -330 -180 -514 -231 -623 -343 -735 -116 -118
-208 -156 -755 -315 -335 -98 -476 -144 -605 -200 -313 -134 -522 -303 -826
-665 -223 -265 -362 -393 -551 -504 l-83 -49 -145 -6 c-727 -33 -1621 -151
-2165 -287 -568 -142 -908 -317 -1007 -517 -19 -38 -23 -63 -23 -133 0 -77 3
-91 35 -155 74 -149 326 -357 583 -483 264 -129 464 -159 838 -126 309 27 404
2 549 -143 175 -175 280 -385 580 -1167 101 -261 179 -425 237 -495 92 -112
202 -176 603 -348 646 -278 808 -360 1019 -516 231 -172 406 -396 535 -683 25
-57 88 -210 140 -340 173 -436 279 -648 461 -923 178 -268 366 -491 772 -916
367 -384 478 -509 618 -698 121 -164 188 -273 275 -451 125 -253 194 -479 241
-785 19 -122 23 -188 23 -415 1 -169 -4 -311 -12 -380 -103 -837 -463 -1658
-1229 -2794 -249 -369 -350 -496 -618 -770 -340 -348 -745 -701 -1665 -1451
-1120 -913 -1526 -1266 -1990 -1730 -748 -747 -1160 -1369 -1280 -1931 -61
-284 -46 -715 37 -1089 114 -517 369 -909 762 -1172 698 -467 1846 -523 3566
-174 603 122 1077 240 2290 571 1434 391 1810 480 2335 552 182 25 536 25 645
-1 181 -42 460 -159 680 -285 235 -136 447 -288 890 -641 621 -494 909 -675
1267 -798 253 -88 457 -117 748 -109 396 11 755 112 1202 339 491 248 962 601
1434 1072 488 489 853 979 1109 1491 200 398 324 822 387 1325 21 165 18 728
-5 905 -109 850 -456 1676 -1130 2685 -268 402 -544 775 -1172 1585 -601 775
-899 1181 -1167 1590 -600 914 -901 1661 -984 2438 -22 205 -14 602 15 797 51
342 135 644 263 945 460 1083 1477 1932 2698 2254 502 132 1028 152 1475 56
780 -168 1348 -641 1628 -1355 202 -515 257 -1111 172 -1855 -83 -720 -111
-995 -145 -1405 -102 -1253 -91 -2258 36 -3135 327 -2278 1473 -3681 3522
-4314 1209 -373 2349 -307 3337 193 590 300 1099 730 1560 1321 111 142 332
473 430 644 748 1308 1055 2961 834 4501 -105 739 -391 1598 -824 2475 -568
1151 -1343 2245 -2439 3445 -212 231 -932 952 -1166 1166 -496 455 -930 824
-1425 1214 -1752 1379 -3855 2652 -6330 3832 -2826 1348 -3982 1809 -5560
2218 -1145 297 -1338 340 -1765 396 -171 22 -621 28 -750 10z m690 -71 c426
-47 698 -109 2074 -471 638 -168 1373 -418 2166 -736 1194 -479 3546 -1584
4820 -2266 2388 -1276 4289 -2587 5960 -4110 265 -241 1017 -991 1246 -1242
896 -982 1545 -1850 2088 -2793 530 -922 951 -1994 1106 -2817 255 -1360 78
-2849 -491 -4136 -511 -1158 -1332 -2066 -2294 -2539 -409 -201 -821 -322
-1305 -382 -205 -25 -731 -25 -945 1 -309 37 -580 91 -865 173 -1228 352
-2133 975 -2750 1893 -461 686 -756 1559 -885 2612 -61 508 -79 899 -72 1568
8 751 50 1354 163 2350 24 217 51 456 60 530 22 197 29 602 15 800 -83 1111
-582 1872 -1460 2224 -182 74 -388 127 -626 163 -169 25 -645 25 -825 0 -1084
-152 -2076 -718 -2735 -1562 -402 -514 -657 -1122 -752 -1790 -25 -182 -25
-721 0 -905 142 -1014 619 -1962 1711 -3400 77 -102 295 -385 485 -630 824
-1064 1176 -1562 1502 -2127 120 -209 342 -659 418 -851 382 -951 447 -1818
205 -2704 -73 -268 -153 -475 -274 -713 -567 -1111 -1758 -2230 -2815 -2648
-742 -293 -1378 -254 -2022 124 -217 128 -399 260 -813 589 -534 424 -757 578
-1058 729 -387 194 -629 248 -992 222 -512 -38 -993 -145 -2496 -555 -1034
-282 -1450 -390 -1945 -502 -1657 -374 -2789 -409 -3549 -108 -578 229 -943
662 -1093 1299 -55 232 -70 377 -71 670 -1 247 1 279 23 380 159 747 787 1554
2081 2675 278 241 492 419 1190 990 945 773 1236 1026 1590 1380 326 326 425
447 714 878 674 1005 1026 1759 1170 2507 53 277 74 588 57 845 -38 551 -173
958 -462 1391 -148 222 -310 412 -704 824 -422 442 -589 639 -774 915 -181
270 -273 455 -462 930 -61 151 -136 329 -168 395 -126 258 -275 446 -482 607
-215 168 -399 263 -1049 543 -406 175 -457 202 -556 300 -100 99 -136 167
-264 500 -312 809 -420 1026 -599 1206 -84 84 -185 141 -280 159 -70 13 -222
13 -336 -1 -137 -16 -347 -14 -446 5 -254 48 -559 210 -761 404 -102 98 -141
155 -162 235 -24 93 -3 159 77 245 158 167 504 307 1064 432 539 119 1387 227
1936 247 98 3 180 10 183 14 2 5 11 6 19 3 18 -7 98 37 219 119 124 85 281
239 471 462 286 336 436 461 700 590 171 84 266 117 740 256 376 111 498 154
595 207 83 46 185 147 240 240 58 99 144 315 251 632 117 348 118 368 19 644
-26 73 -31 100 -28 150 7 115 99 262 210 337 91 62 274 146 574 264 615 242
661 265 818 414 43 42 134 141 201 221 195 232 287 316 425 385 121 61 300
107 489 125 118 12 417 4 591 -15z"/>
<path d="M15805 33844 c-524 -54 -938 -241 -1370 -619 -145 -126 -274 -256
-588 -590 -596 -634 -877 -896 -1157 -1085 -211 -142 -486 -291 -865 -471
-851 -403 -1143 -576 -1419 -839 -361 -345 -566 -831 -566 -1345 0 -317 72
-599 239 -930 187 -371 435 -690 872 -1120 311 -305 569 -528 1264 -1090 629
-508 852 -701 1120 -970 194 -194 344 -371 456 -537 436 -647 687 -1433 760
-2383 24 -318 13 -839 -27 -1195 -117 -1052 -450 -2062 -942 -2849 -323 -519
-704 -925 -1962 -2096 -709 -659 -827 -771 -1193 -1135 -881 -872 -1364 -1473
-1647 -2045 -135 -275 -189 -436 -241 -730 -20 -109 -23 -165 -24 -350 0 -195
3 -230 22 -308 66 -256 219 -425 462 -507 271 -91 688 -84 1231 21 403 78 811
184 1715 444 1574 452 2259 606 3070 692 239 25 850 25 1045 0 462 -59 807
-176 1193 -404 225 -133 443 -289 927 -664 655 -507 1025 -701 1485 -779 562
-96 1153 50 1733 426 242 158 440 322 667 555 290 297 495 583 673 939 147
293 233 559 268 833 22 177 15 613 -15 864 -87 733 -298 1391 -690 2158 -335
653 -660 1153 -1628 2501 -903 1257 -1314 1897 -1556 2419 -215 465 -300 773
-411 1475 -97 614 -144 1113 -153 1615 -14 801 69 1102 387 1398 202 188 482
351 1055 617 427 198 673 331 838 453 42 31 172 143 289 248 694 624 737 647
1268 669 730 29 1095 72 1549 179 253 60 294 66 368 51 125 -26 244 -106 605
-407 242 -201 472 -426 602 -588 554 -692 851 -1609 951 -2935 32 -438 37
-707 33 -2205 -3 -1563 -1 -1660 43 -2182 158 -1883 778 -3002 2024 -3654 426
-223 972 -398 1475 -474 286 -43 690 -58 950 -35 643 59 1212 284 1730 686
152 118 451 416 582 582 652 820 1037 1920 1108 3166 37 654 -27 1335 -186
1975 -172 693 -568 1668 -989 2436 -1085 1980 -2690 3666 -5203 5464 -792 567
-2124 1449 -2811 1860 -1239 744 -2597 1353 -3984 1787 -1245 390 -2486 661
-4179 914 -609 91 -616 91 -928 95 -157 1 -303 1 -325 -1z m661 -59 c412 -47
1443 -212 2102 -336 2496 -471 4594 -1237 6547 -2392 555 -328 1765 -1120
2545 -1666 1800 -1259 3086 -2389 4109 -3611 999 -1193 1727 -2465 2220 -3878
195 -559 296 -1009 358 -1602 25 -238 25 -1014 0 -1245 -87 -801 -262 -1437
-562 -2050 -210 -427 -455 -780 -760 -1094 -548 -563 -1171 -874 -1960 -977
-182 -24 -615 -24 -815 -1 -349 42 -676 115 -1010 227 -633 211 -1094 485
-1500 890 -235 234 -397 446 -555 725 -323 569 -522 1321 -600 2260 -40 487
-40 490 -40 2200 -1 1697 -2 1791 -41 2275 -90 1151 -336 1986 -780 2650 -193
290 -418 530 -778 828 -348 290 -459 367 -579 404 -101 30 -195 22 -459 -40
-446 -106 -799 -148 -1428 -172 -486 -18 -571 -37 -775 -167 -120 -78 -271
-204 -618 -518 -104 -93 -228 -200 -276 -236 -174 -131 -408 -258 -885 -479
-121 -56 -274 -129 -340 -162 -636 -319 -921 -599 -1016 -1002 -105 -443 -83
-1303 61 -2301 129 -901 234 -1270 524 -1845 257 -509 622 -1067 1473 -2255
612 -853 857 -1205 1062 -1525 682 -1063 1065 -1955 1214 -2830 74 -432 94
-901 51 -1185 -117 -771 -705 -1636 -1485 -2183 -405 -284 -825 -455 -1240
-503 -165 -19 -455 -7 -610 26 -243 51 -502 153 -737 291 -209 123 -409 266
-903 649 -864 669 -1347 872 -2188 917 -654 35 -1483 -79 -2557 -352 -348 -88
-528 -138 -1339 -370 -927 -264 -1276 -354 -1659 -429 -748 -147 -1195 -114
-1454 106 -172 145 -253 419 -225 753 22 255 77 502 157 707 165 421 479 892
965 1448 414 474 925 979 1975 1955 1423 1321 1776 1720 2154 2429 714 1338
976 3094 680 4541 -164 801 -499 1493 -971 2010 -261 285 -555 544 -1323 1165
-635 513 -903 744 -1204 1040 -433 426 -691 756 -874 1123 -265 531 -301 1040
-110 1552 141 377 385 666 793 937 203 135 447 265 875 467 356 169 686 337
845 432 424 253 649 455 1446 1304 475 504 740 725 1071 890 249 124 496 189
848 224 80 8 453 -4 581 -19z"/>
<path d="M16295 32799 c-351 -30 -675 -144 -964 -338 -235 -159 -416 -327
-917 -857 -622 -658 -920 -912 -1474 -1256 -344 -214 -472 -298 -585 -383
-468 -354 -862 -903 -950 -1325 -24 -112 -24 -316 -1 -425 83 -387 386 -758
983 -1208 167 -125 325 -237 668 -472 927 -636 1249 -919 1530 -1345 563 -853
952 -1842 1110 -2825 67 -417 89 -751 82 -1233 -8 -546 -56 -952 -172 -1478
-211 -949 -606 -1876 -1151 -2701 -379 -572 -743 -962 -1804 -1933 -744 -680
-1125 -1057 -1440 -1425 -428 -499 -747 -1020 -815 -1329 -33 -151 -9 -277 66
-340 86 -72 166 -91 384 -90 339 1 575 51 2100 444 974 251 1629 377 2315 447
253 25 894 25 1100 0 418 -53 723 -138 1025 -287 280 -138 484 -272 885 -581
477 -369 632 -479 850 -603 212 -120 456 -211 675 -252 81 -15 147 -19 340
-19 222 1 250 3 368 28 641 136 1188 565 1482 1162 109 222 176 448 211 715
20 158 15 549 -11 710 -71 454 -248 930 -524 1413 -158 275 -464 746 -1316
2022 -1047 1568 -1339 2028 -1697 2665 -1009 1796 -1363 3204 -1127 4485 149
808 551 1576 1211 2310 237 264 553 563 822 779 1916 1536 4442 1816 6116 678
354 -240 673 -553 922 -905 376 -530 629 -1200 737 -1952 64 -442 73 -936 32
-1790 -65 -1385 -74 -1669 -74 -2335 0 -666 18 -1086 69 -1555 62 -573 180
-1115 332 -1520 266 -712 648 -1205 1176 -1518 308 -182 799 -354 1216 -426
371 -64 769 -62 1075 5 762 167 1354 667 1750 1479 244 500 391 1055 457 1735
20 212 17 948 -5 1170 -58 573 -160 1046 -347 1610 -639 1923 -1750 3541
-3460 5039 -1063 933 -2387 1856 -4181 2918 -626 371 -1009 581 -1539 846
-2046 1023 -4042 1623 -6620 1991 -455 65 -654 77 -915 55z m563 -34 c385 -41
1355 -200 1942 -320 898 -183 1624 -376 2445 -649 1359 -453 2573 -1011 3920
-1801 2740 -1608 4481 -2944 5736 -4402 1016 -1180 1731 -2475 2168 -3925 225
-745 324 -1551 281 -2283 -86 -1469 -634 -2603 -1510 -3129 -247 -148 -542
-254 -840 -301 -144 -23 -466 -31 -627 -16 -353 33 -748 132 -1123 281 -1013
402 -1596 1323 -1829 2890 -83 560 -117 1207 -108 2090 6 599 8 661 57 1750
16 366 34 801 40 967 46 1397 -256 2471 -941 3342 -105 133 -392 422 -525 527
-618 493 -1321 771 -2189 866 -189 21 -808 17 -1015 -5 -1543 -169 -2966 -931
-4075 -2182 -610 -688 -1009 -1458 -1160 -2244 -60 -312 -70 -426 -70 -821 0
-396 8 -497 65 -835 180 -1063 702 -2252 1657 -3775 294 -470 353 -559 1494
-2265 979 -1464 1174 -1799 1357 -2337 256 -750 239 -1424 -51 -2008 -377
-757 -1186 -1238 -1971 -1171 -455 38 -840 216 -1406 650 -597 457 -744 562
-951 684 -133 78 -360 188 -477 231 -747 273 -1726 272 -3087 -4 -335 -68
-641 -140 -1150 -270 -1313 -336 -1489 -377 -1795 -421 -183 -25 -387 -28
-485 -5 -177 42 -253 152 -225 327 41 269 295 721 661 1179 327 409 712 802
1454 1484 658 605 778 718 1035 976 510 511 798 876 1137 1445 1200 2012 1450
4343 686 6395 -218 584 -586 1285 -888 1688 -143 192 -383 424 -675 653 -171
134 -370 277 -780 559 -699 481 -966 692 -1217 963 -206 222 -319 413 -380
646 -34 127 -38 333 -9 456 57 247 180 478 408 774 105 134 364 395 488 491
108 83 362 251 633 419 538 332 869 613 1435 1216 535 569 749 767 1008 931
238 150 521 250 819 289 141 18 456 18 633 0z"/>
<path d="M16705 32074 c-579 -79 -1154 -430 -2060 -1259 -414 -379 -524 -471
-1037 -872 -411 -320 -556 -442 -710 -592 -315 -306 -441 -550 -425 -821 7
-121 26 -192 82 -308 150 -312 427 -587 1015 -1007 293 -210 533 -418 835
-726 523 -533 915 -1058 1557 -2084 448 -716 568 -865 695 -865 48 0 76 19
109 76 37 62 48 103 110 408 236 1152 555 1978 1047 2710 189 281 378 506 633
756 237 231 426 383 699 563 513 336 1247 655 2015 876 367 106 383 111 469
157 46 24 180 108 298 185 333 219 466 280 608 282 126 1 174 -21 414 -193
124 -88 221 -110 339 -75 71 21 127 67 189 155 103 147 177 190 300 176 125
-15 198 -70 334 -253 172 -233 228 -280 393 -327 110 -32 242 -36 295 -8 56
28 76 64 75 135 0 84 -29 144 -107 222 -119 119 -348 250 -722 414 -104 46
-372 174 -595 285 -1421 708 -2887 1270 -4210 1615 -647 169 -1494 328 -2029
381 -142 14 -495 11 -616 -6z m695 -29 c1082 -128 2298 -425 3503 -856 885
-316 1958 -777 2752 -1183 143 -73 332 -164 420 -201 231 -100 515 -243 625
-315 107 -71 207 -166 235 -225 13 -27 20 -61 20 -103 0 -57 -3 -66 -28 -88
-59 -50 -166 -55 -304 -13 -155 47 -224 105 -363 300 -92 129 -170 208 -241
245 -45 23 -70 28 -147 32 -149 7 -195 -19 -305 -176 -86 -122 -153 -163 -272
-165 -80 -1 -148 31 -285 133 -141 105 -217 140 -319 147 -171 12 -315 -49
-673 -285 -126 -82 -265 -168 -310 -191 -54 -26 -170 -65 -329 -110 -1003
-285 -1814 -655 -2394 -1091 -920 -692 -1558 -1700 -1945 -3070 -66 -236 -151
-596 -200 -845 -55 -288 -89 -378 -151 -411 -39 -19 -74 -9 -135 41 -99 82
-222 255 -554 785 -680 1084 -1108 1653 -1650 2190 -271 269 -482 446 -829
696 -710 510 -1021 900 -1022 1279 -1 119 21 209 80 330 59 120 137 227 262
359 163 172 299 286 964 806 280 220 521 422 705 592 1078 996 1636 1339 2292
1408 116 12 436 4 598 -15z"/>
<path d="M17174 31259 c-567 -41 -1095 -334 -2058 -1142 -76 -64 -227 -185
-335 -269 -108 -83 -266 -206 -351 -272 -543 -420 -761 -667 -815 -921 -18
-88 -18 -132 0 -220 61 -288 351 -567 930 -895 258 -146 402 -256 615 -469
301 -301 512 -603 880 -1256 234 -416 305 -517 387 -551 41 -18 88 -7 121 29
37 39 91 169 127 307 132 495 310 916 568 1340 227 372 456 666 757 974 467
476 839 734 1595 1106 743 365 1286 554 2120 740 304 68 355 91 355 158 0 48
-22 80 -93 134 -245 185 -836 458 -1422 658 -923 313 -1857 486 -2975 550
-195 11 -245 11 -406 -1z m806 -53 c1191 -104 2224 -354 3230 -782 464 -197
840 -421 840 -501 0 -53 -57 -73 -457 -163 -733 -163 -1297 -365 -2018 -720
-606 -299 -920 -496 -1281 -805 -738 -630 -1352 -1577 -1601 -2470 -72 -261
-101 -347 -133 -402 -99 -171 -182 -94 -485 447 -387 690 -616 1015 -936 1326
-187 181 -325 283 -589 433 -295 169 -477 299 -643 461 -437 424 -362 779 276
1311 65 54 272 218 460 363 188 146 446 351 572 456 880 732 1361 1003 1905
1070 125 15 540 3 860 -24z"/>
<path d="M17435 30600 c-141 -9 -247 -31 -413 -86 -863 -282 -2109 -1134
-2436 -1664 -102 -164 -110 -292 -30 -441 68 -125 178 -205 542 -393 293 -150
416 -230 537 -350 107 -105 175 -203 251 -364 94 -200 182 -294 297 -323 269
-66 586 242 1002 971 213 373 345 551 594 801 260 259 503 440 846 627 373
204 876 389 1421 522 156 38 189 53 204 91 29 69 -51 148 -245 244 -158 78
-273 120 -470 174 -363 100 -764 163 -1220 191 -177 11 -708 11 -880 0z m755
-40 c639 -30 1202 -132 1635 -295 270 -102 445 -232 367 -274 -10 -5 -83 -26
-163 -46 -516 -130 -871 -254 -1246 -435 -439 -213 -731 -417 -1039 -724 -251
-252 -388 -437 -609 -826 -139 -243 -276 -453 -384 -587 -84 -105 -210 -230
-278 -276 -64 -44 -152 -76 -207 -77 -86 0 -125 18 -202 94 -63 63 -78 87
-143 221 -170 350 -316 479 -836 743 -321 163 -432 248 -497 380 -29 59 -33
76 -33 147 0 73 4 88 37 156 193 387 1003 1027 1827 1443 386 195 693 310 914
341 144 21 567 28 857 15z"/>
<path d="M18350 30183 c-312 -29 -590 -91 -952 -209 -575 -188 -1147 -469
-1514 -744 -54 -41 -145 -120 -200 -175 -161 -159 -226 -277 -226 -413 0 -101
38 -180 125 -255 271 -237 551 -392 727 -404 268 -19 446 139 725 642 133 241
241 383 423 557 287 275 620 477 1212 737 231 101 260 120 260 166 0 42 -22
59 -100 74 -125 24 -360 36 -480 24z m345 -73 c139 -16 157 -20 145 -35 -6 -7
-90 -47 -188 -90 -263 -115 -560 -262 -708 -352 -429 -259 -732 -553 -924
-897 -184 -328 -277 -465 -384 -563 -219 -201 -445 -164 -846 138 -211 159
-255 210 -267 306 -41 354 797 924 1892 1288 304 101 653 184 875 208 77 8
320 6 405 -3z"/>
<path d="M27524 27529 c-42 -46 -30 -173 56 -634 253 -1345 341 -2373 327
-3835 -6 -620 -13 -808 -44 -1310 -32 -519 -23 -1178 23 -1635 118 -1182 485
-2111 1057 -2677 291 -288 631 -476 998 -550 100 -20 142 -23 344 -23 211 1
240 3 356 28 695 148 1269 680 1573 1457 186 477 298 1188 299 1900 0 317 -10
500 -44 780 -177 1474 -862 2900 -2044 4255 -187 214 -718 745 -935 936 -503
441 -941 771 -1480 1115 -246 156 -359 214 -420 214 -35 0 -52 -5 -66 -21z
m136 -22 c144 -59 713 -434 1095 -720 1277 -959 2293 -2128 2931 -3372 202
-394 327 -689 459 -1090 327 -985 420 -1979 280 -2975 -79 -560 -183 -920
-371 -1279 -585 -1123 -1787 -1515 -2743 -894 -198 128 -443 361 -596 566
-489 655 -770 1595 -836 2795 -14 265 -7 962 15 1302 30 479 40 843 40 1450 0
1370 -89 2349 -329 3620 -62 331 -75 414 -75 500 0 121 25 140 130 97z"/>
<path d="M28335 26216 c-49 -49 -46 -152 14 -641 22 -176 49 -403 60 -505 105
-959 117 -2062 36 -3160 -50 -670 -39 -1183 35 -1689 91 -614 279 -1146 553
-1558 311 -470 713 -769 1167 -868 115 -25 354 -30 475 -11 394 65 713 309
904 693 67 133 106 256 146 458 256 1271 76 2612 -530 3949 -444 982 -1115
1944 -1871 2686 -256 251 -418 388 -619 520 -215 142 -319 177 -370 126z m170
-39 c448 -228 1100 -862 1667 -1620 773 -1036 1301 -2180 1523 -3301 77 -390
105 -661 112 -1081 8 -487 -21 -813 -114 -1265 -49 -241 -133 -444 -254 -613
-79 -112 -231 -256 -341 -325 -535 -333 -1230 -191 -1763 359 -460 475 -751
1189 -855 2098 -47 414 -51 929 -11 1476 37 498 42 650 48 1246 9 927 -22
1469 -133 2354 -48 376 -64 619 -45 668 20 50 73 52 166 4z"/>
<path d="M29178 24666 c-10 -7 -25 -31 -35 -52 -26 -61 -20 -287 21 -774 47
-559 56 -703 65 -1080 9 -333 1 -768 -19 -1085 -16 -239 -8 -802 14 -1005 67
-619 207 -1129 434 -1570 395 -767 991 -1073 1363 -699 176 177 277 477 346
1029 25 203 25 759 0 975 -126 1077 -564 2190 -1290 3280 -259 388 -611 835
-735 933 -71 56 -131 74 -164 48z m108 -69 c130 -89 475 -524 769 -967 612
-924 1025 -1883 1199 -2785 108 -561 120 -1127 35 -1630 -26 -152 -71 -343
-105 -443 -190 -552 -631 -639 -1078 -212 -573 548 -914 1727 -857 2964 7 149
16 350 21 446 26 509 7 1096 -62 1880 -37 431 -43 710 -15 753 23 35 35 34 93
-6z"/>
<path d="M30033 21990 c-90 -54 -165 -247 -205 -525 -20 -139 -17 -599 5 -750
57 -390 163 -727 323 -1035 96 -183 149 -240 224 -240 100 0 174 133 223 402
19 110 22 156 22 433 0 244 -4 339 -18 445 -55 407 -157 750 -306 1035 -128
244 -180 289 -268 235z m128 -127 c301 -459 466 -1299 383 -1948 -30 -242 -98
-405 -168 -405 -39 0 -98 79 -175 233 -213 430 -321 891 -321 1375 0 287 27
479 92 658 31 88 87 164 119 164 13 0 36 -25 70 -77z"/>
<path d="M16535 22278 c-182 -93 -222 -322 -119 -678 34 -120 91 -269 207
-540 222 -523 238 -586 202 -776 -16 -83 -55 -176 -104 -247 -16 -24 -92 -106
-169 -183 -209 -208 -258 -299 -269 -491 -9 -155 6 -205 147 -488 123 -247
146 -309 156 -430 12 -137 -45 -277 -221 -539 -297 -446 -802 -1060 -1889
-2301 -236 -269 -536 -611 -666 -760 -988 -1128 -1329 -1574 -1273 -1664 17
-27 85 -60 163 -78 60 -14 117 -18 280 -17 281 0 489 25 1270 150 693 110
1024 155 1465 196 218 20 808 17 965 -5 154 -22 246 -41 357 -73 191 -55 194
-57 993 -516 888 -510 1425 -736 1935 -815 151 -23 428 -23 550 0 252 49 441
146 618 316 309 298 406 735 292 1306 -109 547 -417 1206 -896 1920 -222 333
-358 509 -779 1015 -1037 1246 -1641 2111 -2040 2925 -198 403 -217 460 -335
1010 -271 1259 -494 1786 -755 1784 -25 0 -62 -9 -85 -21z m167 -24 c45 -23
121 -108 170 -190 67 -113 121 -242 193 -459 104 -309 166 -558 340 -1355 63
-287 94 -372 260 -715 406 -842 1005 -1702 2109 -3030 353 -423 540 -668 742
-970 513 -767 816 -1448 910 -2045 23 -148 23 -406 -1 -530 -45 -237 -130
-410 -280 -569 -162 -171 -360 -281 -610 -337 -106 -24 -375 -29 -515 -11
-357 47 -759 185 -1250 428 -300 148 -425 217 -941 515 -212 123 -433 248
-490 278 -447 235 -1127 273 -2244 125 -126 -16 -270 -36 -320 -44 -49 -8
-319 -50 -600 -94 -750 -118 -946 -141 -1207 -141 -239 0 -399 40 -406 101 -9
76 209 374 683 935 115 136 542 628 950 1093 1423 1626 1876 2174 2188 2644
180 270 227 380 227 527 0 148 -19 207 -150 465 -132 262 -155 331 -154 465 1
101 34 210 90 298 20 31 100 119 178 196 78 78 159 167 180 199 75 114 108
232 110 382 1 130 -17 185 -199 615 -188 444 -250 628 -275 819 -28 207 44
365 189 417 38 14 79 10 123 -12z"/>
<path d="M17078 18895 c-56 -31 -85 -130 -122 -430 -125 -1002 -499 -1841
-1183 -2654 -122 -145 -585 -610 -757 -759 -71 -62 -237 -204 -370 -316 -300
-253 -395 -339 -469 -424 -68 -78 -117 -171 -117 -220 0 -59 36 -119 94 -157
81 -54 156 -70 331 -68 170 1 281 15 737 98 625 114 868 139 1243 132 415 -8
702 -69 1000 -211 148 -71 220 -116 415 -261 995 -739 1894 -1006 2412 -717
281 156 406 433 370 818 -26 278 -118 575 -290 937 -164 345 -415 753 -679
1105 -134 178 -152 200 -368 447 -517 590 -911 1090 -1596 2030 -250 343 -376
502 -459 579 -90 83 -137 100 -192 71z m113 -43 c95 -61 205 -199 752 -947
484 -661 910 -1197 1356 -1705 298 -338 500 -607 710 -943 340 -542 543 -1012
611 -1414 29 -166 24 -376 -10 -493 -96 -332 -398 -530 -809 -530 -501 0
-1217 310 -1886 815 -182 138 -276 197 -428 270 -216 103 -424 164 -697 202
-94 13 -193 17 -400 17 -375 0 -568 -22 -1210 -139 -460 -83 -505 -89 -700
-89 -161 -1 -180 1 -235 23 -38 15 -77 41 -107 71 -43 42 -48 52 -48 92 0 105
118 244 439 516 423 358 605 518 771 674 814 768 1337 1625 1570 2572 50 206
82 381 114 631 26 204 45 294 71 345 35 68 67 75 136 32z"/>
<path d="M17409 17071 c-73 -49 -137 -142 -299 -436 -181 -327 -340 -573 -505
-780 -52 -66 -207 -239 -344 -385 -386 -413 -469 -511 -517 -613 -13 -29 -24
-65 -24 -80 0 -43 46 -84 105 -93 82 -12 341 3 545 32 244 35 542 39 730 11
325 -50 642 -156 990 -333 205 -104 384 -213 784 -477 470 -310 601 -377 743
-377 75 0 125 22 171 75 113 128 133 346 56 612 -128 443 -551 1085 -1189
1803 -369 416 -930 978 -1040 1041 -71 41 -144 41 -206 0z m185 -45 c23 -13
133 -112 246 -218 466 -442 970 -1004 1322 -1473 405 -541 626 -965 675 -1294
25 -170 -6 -305 -92 -400 -63 -69 -138 -76 -275 -25 -101 38 -218 109 -565
339 -597 396 -897 559 -1263 686 -292 101 -504 139 -807 146 -223 5 -263 2
-565 -38 -216 -29 -434 -32 -473 -6 -81 52 -8 151 535 730 205 217 302 332
431 509 135 186 185 269 477 785 85 151 155 241 210 270 52 28 82 25 144 -11z"/>
<path d="M17603 16165 c-203 -55 -442 -262 -596 -515 -110 -182 -132 -327 -61
-401 35 -37 66 -45 228 -59 359 -31 700 -171 1324 -541 381 -227 468 -269 554
-269 31 0 46 7 70 31 31 30 31 30 25 117 -6 102 -30 175 -99 310 -209 409
-764 1027 -1137 1267 -116 75 -195 90 -308 60z m215 -84 c305 -155 859 -740
1120 -1181 98 -166 165 -358 148 -426 -7 -25 -10 -26 -57 -22 -63 6 -174 63
-480 245 -655 391 -1014 535 -1399 562 -67 5 -125 14 -138 22 -107 67 10 340
248 580 219 221 409 296 558 220z"/>
<path d="M40200 33089 c-497 -34 -995 -231 -1620 -644 -1100 -725 -2374 -2112
-3075 -3345 -357 -628 -499 -1064 -536 -1641 -28 -445 47 -969 221 -1544 150
-494 325 -919 812 -1970 519 -1118 717 -1625 857 -2183 155 -621 166 -953 50
-1512 -231 -1108 -1003 -3025 -1859 -4615 -173 -321 -215 -438 -208 -587 3
-73 8 -92 31 -127 36 -53 97 -97 166 -119 45 -14 94 -17 246 -17 259 1 466 34
1095 176 929 210 1230 273 1600 333 540 89 886 120 1340 120 552 0 893 -49
1305 -185 611 -203 1040 -542 1367 -1083 157 -258 269 -500 503 -1091 210
-530 289 -711 408 -930 72 -134 203 -332 291 -441 127 -158 361 -361 496 -429
250 -127 687 -134 1163 -19 l147 36 0 38 0 39 -39 -14 c-237 -83 -670 -134
-910 -106 -271 32 -413 105 -649 335 -185 179 -338 394 -480 674 -111 218
-176 366 -365 844 -201 503 -252 622 -371 853 -108 212 -189 344 -306 500 -81
108 -277 332 -292 334 -4 1 -47 33 -95 72 -435 349 -959 545 -1658 621 -188
20 -902 17 -1130 -5 -618 -61 -1093 -147 -2171 -392 -724 -165 -1025 -217
-1259 -219 -118 -1 -151 3 -210 21 -129 40 -179 124 -156 258 23 130 63 222
265 600 362 678 829 1685 1139 2455 533 1326 782 2292 737 2859 -40 503 -184
1057 -450 1721 -139 348 -250 596 -639 1437 -459 993 -658 1510 -796 2068 -87
351 -123 605 -132 925 -19 679 151 1246 602 1999 741 1239 1940 2520 3020
3227 505 330 948 520 1380 591 165 27 562 25 782 -5 869 -117 1909 -486 3193
-1133 292 -147 854 -446 955 -509 l35 -22 0 39 0 38 -163 89 c-499 275 -1110
584 -1517 768 -1120 506 -2028 775 -2761 818 -190 11 -192 11 -359 -1z"/>
<path d="M40242 32080 c-294 -26 -642 -172 -1057 -444 -781 -514 -1724 -1457
-2395 -2395 -398 -558 -676 -1090 -760 -1456 -88 -388 -70 -825 56 -1328 121
-483 303 -944 792 -1997 476 -1027 637 -1411 808 -1926 189 -570 308 -1160
307 -1529 -2 -723 -488 -2673 -1052 -4223 -97 -268 -104 -309 -67 -385 62
-128 214 -169 616 -168 222 0 288 3 870 41 899 58 1529 52 2035 -21 460 -66
821 -171 1160 -339 304 -150 428 -242 838 -619 361 -332 590 -705 990 -1606
195 -440 255 -567 346 -730 221 -394 438 -597 711 -666 114 -29 331 -24 468
11 83 21 92 25 92 47 0 12 -3 23 -8 23 -4 0 -52 -11 -105 -25 -315 -80 -566
-17 -792 197 -212 200 -354 447 -676 1178 -388 882 -664 1324 -1011 1626 -51
43 -130 114 -176 157 -514 477 -1165 734 -2083 822 -517 49 -980 44 -1959 -22
-500 -33 -921 -37 -1047 -10 -188 40 -259 106 -240 223 3 19 51 159 105 312
491 1364 882 2851 1014 3852 19 142 16 508 -5 660 -73 522 -191 975 -407 1555
-147 394 -287 717 -650 1500 -261 564 -361 785 -468 1042 -465 1108 -577 1849
-375 2476 189 589 727 1410 1467 2237 175 195 628 648 806 806 687 608 1263
961 1730 1061 127 27 444 24 640 -6 966 -147 2377 -735 3960 -1652 107 -62
214 -123 238 -137 l42 -24 0 29 c0 22 -8 32 -38 49 -20 11 -147 84 -282 161
-719 413 -1536 824 -2145 1078 -986 412 -1786 609 -2293 565z"/>
<path d="M0 31376 c0 -33 4 -38 68 -74 1472 -848 2851 -1788 4194 -2858 1837
-1464 3166 -2869 3436 -3635 183 -518 -38 -1126 -734 -2020 -231 -296 -459
-563 -1108 -1293 -945 -1065 -1393 -1614 -1823 -2237 -728 -1051 -1168 -2065
-1312 -3019 -28 -191 -39 -300 -56 -585 -56 -932 -222 -1662 -526 -2327 -431
-942 -1166 -1643 -2041 -1949 -97 -34 -98 -34 -98 -66 0 -18 4 -33 9 -33 5 0
55 16 110 35 867 302 1581 964 2031 1880 342 699 524 1468 580 2455 32 559
113 987 281 1494 308 924 858 1858 1736 2951 322 400 541 655 1383 1605 887
1000 1254 1487 1491 1975 243 501 269 902 85 1290 -165 347 -457 750 -908
1252 -188 208 -739 760 -1003 1003 -1363 1254 -3124 2573 -4875 3650 -243 149
-691 414 -852 504 l-68 38 0 -36z"/>
<path d="M40275 31369 c-390 -46 -1070 -522 -1825 -1279 -815 -816 -1475
-1729 -1688 -2332 -108 -304 -100 -692 24 -1168 98 -379 287 -860 617 -1575
69 -148 195 -423 282 -610 519 -1124 770 -1817 914 -2530 187 -924 148 -1719
-134 -2719 -136 -483 -193 -818 -182 -1076 20 -479 247 -656 922 -719 311 -30
660 -52 1015 -66 217 -8 465 -20 550 -26 941 -63 1587 -296 2165 -780 295
-248 493 -501 709 -911 132 -251 207 -428 561 -1328 125 -317 261 -606 346
-735 68 -104 188 -224 259 -260 64 -33 190 -48 190 -24 0 10 -16 14 -54 16
-82 2 -157 42 -246 132 -164 165 -280 393 -540 1061 -243 628 -349 876 -485
1137 -241 463 -464 739 -823 1016 -380 295 -841 504 -1334 606 -352 73 -614
96 -1443 126 -201 8 -779 51 -945 70 -511 61 -712 183 -797 485 -28 100 -25
440 5 610 37 207 70 350 153 655 192 702 259 1186 246 1755 -17 718 -174 1433
-502 2296 -149 389 -296 728 -636 1462 -478 1030 -646 1440 -769 1873 -112
397 -147 772 -95 1024 56 273 243 651 532 1078 751 1111 2018 2323 2752 2633
47 20 129 47 181 61 87 23 108 24 240 19 849 -30 2543 -743 4343 -1824 161
-98 217 -127 217 -114 0 18 -38 43 -420 267 -1687 989 -3217 1627 -4069 1694
-74 6 -142 10 -150 10 -9 -1 -47 -5 -86 -10z"/>
<path d="M40558 30599 c-354 -28 -668 -157 -957 -392 -100 -81 -688 -664 -896
-887 -492 -529 -854 -990 -1079 -1373 -71 -121 -177 -340 -206 -425 -106 -317
14 -835 398 -1722 101 -233 140 -319 405 -891 426 -920 608 -1353 778 -1858
210 -619 331 -1158 391 -1741 17 -167 17 -762 0 -940 -32 -331 -92 -688 -187
-1115 -40 -182 -55 -270 -55 -325 0 -179 73 -381 173 -482 103 -104 207 -139
490 -163 508 -43 874 -91 1197 -155 1021 -203 1833 -600 2517 -1232 398 -367
693 -774 971 -1338 106 -216 134 -263 176 -305 64 -64 114 -88 193 -93 87 -6
133 4 133 28 0 18 -2 18 -42 4 -88 -32 -203 8 -280 96 -22 25 -62 92 -90 150
-158 333 -250 500 -403 730 -572 859 -1473 1507 -2545 1831 -526 160 -961 233
-1858 313 -195 18 -289 43 -377 102 -124 82 -210 260 -230 474 -6 68 -2 97 44
300 131 591 186 952 212 1390 42 717 -96 1572 -400 2470 -173 514 -345 926
-769 1840 -269 583 -304 660 -409 900 -382 876 -511 1414 -409 1714 97 285
357 703 710 1141 250 310 527 615 909 1001 340 345 542 533 663 620 462 331
1022 401 1629 204 848 -276 2076 -907 3428 -1761 157 -99 217 -133 217 -120 0
27 -759 497 -1315 813 -975 555 -1946 1002 -2471 1138 -202 52 -457 75 -656
59z"/>
<path d="M0 30223 c0 -25 13 -35 118 -97 208 -123 719 -444 1027 -645 1302
-852 2484 -1765 3665 -2830 477 -431 1198 -1124 1336 -1284 210 -245 321 -462
353 -691 73 -526 -267 -1198 -1123 -2221 -56 -66 -225 -262 -376 -435 -709
-812 -1056 -1230 -1412 -1700 -1231 -1629 -1826 -3048 -1908 -4550 -41 -759
-132 -1306 -302 -1815 -213 -638 -545 -1111 -974 -1388 -88 -57 -247 -136
-336 -168 -57 -20 -68 -28 -68 -46 0 -13 5 -23 10 -23 24 0 201 74 299 126
148 77 275 170 414 304 138 133 217 228 329 395 97 145 258 470 328 658 186
502 300 1131 340 1862 14 263 27 410 56 620 165 1191 684 2374 1608 3665 389
543 842 1101 1586 1950 562 641 832 978 1075 1340 515 767 635 1304 396 1778
-108 215 -248 381 -649 768 -1067 1034 -1998 1836 -3049 2625 -754 566 -1652
1173 -2483 1676 -284 171 -260 160 -260 126z"/>
<path d="M40534 29874 c-159 -26 -331 -95 -447 -177 -75 -53 -647 -586 -898
-837 -335 -333 -527 -560 -714 -839 -159 -239 -251 -440 -297 -654 -18 -84
-22 -134 -22 -282 0 -382 73 -609 432 -1330 880 -1768 1292 -2901 1452 -3995
83 -565 79 -711 -29 -1323 -80 -449 -85 -492 -85 -737 -1 -237 5 -283 54 -414
33 -87 114 -201 186 -260 143 -118 212 -140 1029 -330 634 -148 947 -235 1267
-351 574 -209 1025 -477 1483 -880 214 -189 320 -260 439 -297 207 -63 343 46
470 378 58 154 146 449 145 490 -1 44 0 46 -119 -323 -126 -391 -231 -533
-393 -533 -126 0 -261 78 -510 296 -415 363 -774 592 -1246 793 -385 165 -757
274 -1646 481 -563 131 -646 154 -753 205 -157 77 -271 202 -329 363 -42 115
-55 204 -55 377 -1 187 12 294 87 725 30 173 62 371 71 440 65 496 -83 1413
-373 2304 -218 670 -635 1639 -1124 2611 -241 480 -325 681 -383 914 -41 163
-50 240 -50 396 2 367 126 667 459 1110 156 208 313 383 565 635 303 303 855
811 946 870 181 118 450 181 714 166 894 -50 2136 -666 3925 -1946 229 -164
215 -155 215 -136 0 17 -46 53 -355 271 -1566 1109 -2747 1707 -3595 1821
-131 17 -408 16 -516 -2z"/>
<path d="M0 29406 c0 -8 77 -63 173 -122 1710 -1066 3220 -2230 4657 -3589
348 -329 471 -465 603 -665 163 -248 237 -468 237 -703 -1 -255 -77 -444 -318
-782 -204 -288 -445 -583 -888 -1090 -862 -987 -1278 -1498 -1701 -2090 -833
-1167 -1364 -2279 -1606 -3360 -99 -440 -143 -769 -172 -1295 -57 -1018 -205
-1665 -474 -2066 -137 -206 -331 -365 -472 -389 -24 -4 -39 -12 -39 -21 0 -36
156 23 265 100 78 57 196 181 259 276 279 416 431 1069 486 2085 29 548 89
968 201 1420 289 1161 851 2270 1779 3510 387 518 746 952 1495 1810 411 470
582 677 790 955 271 363 373 553 410 767 59 341 -59 693 -361 1073 -83 105
-409 431 -689 689 -1004 927 -1968 1705 -3065 2476 -296 208 -983 663 -1285
852 -289 181 -285 178 -285 159z"/>
<path d="M41260 28915 c-211 -33 -418 -103 -651 -220 -738 -370 -1236 -1029
-1356 -1796 -24 -158 -24 -500 1 -654 46 -288 100 -445 300 -877 315 -683 496
-1103 653 -1522 315 -842 504 -1630 579 -2421 20 -213 16 -355 -20 -715 -34
-343 -39 -466 -26 -608 34 -374 178 -588 494 -738 168 -79 339 -121 896 -220
413 -73 506 -104 910 -299 426 -206 608 -271 815 -295 321 -36 567 100 791
435 125 188 359 698 352 767 -2 24 -19 -8 -78 -153 -223 -551 -423 -835 -675
-960 -110 -54 -203 -72 -335 -66 -205 11 -423 85 -835 287 -447 217 -499 234
-1095 339 -620 110 -821 187 -1010 388 -81 85 -142 199 -178 331 -25 92 -26
109 -26 337 0 184 6 285 23 435 32 272 38 586 17 800 -96 939 -336 1827 -781
2890 -103 246 -250 575 -428 961 -190 411 -221 491 -273 694 -63 245 -82 568
-49 819 51 386 216 777 463 1095 91 118 287 317 407 414 267 216 621 402 915
481 502 135 1024 56 1613 -243 420 -214 764 -458 1542 -1091 507 -413 789
-626 783 -592 -2 12 -74 73 -183 154 -99 74 -279 215 -400 313 -454 369 -725
584 -875 696 -672 501 -1208 761 -1721 834 -129 18 -441 18 -559 0z"/>
<path d="M2 28585 c1 -9 113 -89 248 -177 960 -627 1688 -1162 2470 -1813 433
-360 1447 -1232 1526 -1313 277 -279 415 -592 415 -937 1 -144 -10 -225 -46
-360 -50 -189 -135 -373 -260 -560 -87 -130 -114 -163 -572 -687 -655 -752
-997 -1167 -1369 -1663 -975 -1300 -1578 -2482 -1889 -3700 -125 -491 -194
-926 -230 -1467 -17 -256 -40 -369 -98 -484 -39 -77 -109 -161 -162 -194 -31
-19 -48 -50 -27 -50 22 0 117 77 151 123 105 140 143 279 161 587 92 1550 639
3032 1688 4570 474 695 1011 1366 1942 2424 308 350 335 384 432 531 139 209
232 423 280 642 29 134 32 407 5 533 -51 236 -157 442 -336 646 -111 128
-1455 1280 -2006 1720 -595 475 -1117 851 -1900 1370 -209 138 -391 257 -403
263 -21 11 -23 10 -20 -4z"/>
<path d="M41300 28211 c-258 -55 -546 -211 -745 -403 -327 -315 -484 -766
-462 -1333 22 -557 146 -998 657 -2340 370 -971 517 -1433 604 -1895 33 -177
48 -275 102 -695 91 -713 152 -991 279 -1263 257 -548 759 -786 1550 -733 555
37 819 148 1002 424 26 39 113 200 194 357 156 307 277 514 426 734 60 89 93
146 91 160 -2 15 -41 -36 -140 -184 -167 -252 -252 -399 -406 -707 -137 -271
-198 -370 -285 -461 -193 -200 -479 -286 -998 -299 -244 -6 -384 4 -559 43
-525 117 -824 437 -980 1049 -50 194 -88 413 -135 780 -82 641 -109 811 -170
1064 -99 405 -237 818 -546 1628 -427 1121 -560 1543 -629 1998 -31 202 -38
535 -15 715 62 490 275 855 641 1100 166 111 371 200 539 236 431 92 962 -97
1640 -581 200 -143 426 -319 815 -635 173 -141 376 -304 450 -362 206 -160
757 -558 774 -558 3 0 6 6 6 13 0 8 -65 59 -145 115 -391 275 -576 417 -1282
988 -834 675 -1340 969 -1807 1049 -124 21 -356 19 -466 -4z"/>
<path d="M6486 27920 c-42 -13 -93 -67 -113 -119 -26 -68 -24 -273 5 -406 41
-192 46 -201 136 -291 132 -131 330 -254 941 -584 571 -308 796 -443 937 -564
117 -99 352 -408 380 -498 10 -33 9 -41 -8 -59 -10 -12 -40 -32 -65 -45 -64
-32 -106 -70 -132 -118 -19 -36 -22 -55 -21 -156 1 -94 6 -131 28 -205 39
-130 135 -319 287 -565 234 -378 309 -547 309 -691 0 -164 -77 -374 -226 -621
-192 -317 -436 -625 -980 -1239 -160 -179 -324 -368 -365 -420 -42 -52 -127
-159 -191 -239 -273 -344 -641 -736 -1246 -1328 -822 -805 -1235 -1275 -1565
-1778 -135 -206 -200 -320 -307 -535 -149 -302 -225 -513 -319 -887 -219 -866
-351 -1662 -413 -2492 -18 -237 -18 -1169 0 -1380 51 -612 134 -1076 255
-1435 185 -548 485 -1044 767 -1268 392 -312 733 -144 945 465 54 153 98 333
155 623 89 450 172 777 287 1130 393 1204 999 2108 1938 2892 324 271 605 474
1225 887 874 582 1181 805 1532 1114 509 446 918 972 1206 1547 207 415 404
986 474 1374 20 113 23 158 23 426 0 320 -10 434 -61 715 -114 627 -370 1284
-628 1614 -89 114 -257 274 -416 396 -332 255 -433 346 -538 488 -127 171
-146 266 -117 596 28 331 11 445 -86 590 -69 104 -187 226 -271 282 -93 62
-179 97 -323 129 -262 59 -382 102 -492 176 -28 19 -129 120 -223 224 -1067
1175 -1939 1970 -2401 2189 -155 73 -240 91 -323 66z m206 -86 c404 -144 1279
-920 2330 -2068 323 -353 327 -357 412 -405 127 -72 202 -98 476 -161 194 -45
307 -107 432 -238 90 -94 153 -185 182 -261 23 -61 23 -86 15 -601 -4 -222 -4
-226 21 -290 69 -174 236 -361 520 -578 457 -350 588 -498 768 -865 346 -704
525 -1635 436 -2268 -28 -203 -131 -568 -249 -884 -326 -872 -809 -1546 -1560
-2175 -299 -250 -573 -448 -1238 -892 -615 -410 -722 -484 -1002 -693 -761
-569 -1282 -1126 -1697 -1810 -433 -715 -709 -1474 -923 -2540 -86 -428 -146
-635 -240 -826 -82 -167 -177 -278 -286 -335 -47 -25 -65 -29 -139 -29 -97 0
-162 22 -265 90 -86 57 -240 213 -331 337 -294 399 -514 932 -619 1501 -178
971 -178 2044 1 3236 88 589 254 1359 381 1771 110 359 304 757 546 1120 332
500 744 964 1583 1786 588 577 950 964 1217 1303 191 242 297 368 528 626 509
572 729 843 928 1145 172 261 275 487 307 674 38 217 -18 372 -294 820 -163
265 -241 415 -282 542 -79 247 -55 361 91 434 75 38 99 70 99 129 0 77 -60
182 -219 381 -195 245 -340 343 -1161 785 -545 294 -785 442 -904 559 -58 57
-64 68 -84 142 -79 291 -71 508 20 552 41 19 123 13 200 -14z"/>
<path d="M10110 22685 c-331 -66 -635 -366 -1077 -1062 -328 -516 -455 -689
-798 -1088 -465 -542 -1146 -1249 -1715 -1778 -835 -778 -1180 -1172 -1376
-1572 -102 -208 -147 -378 -164 -614 -16 -231 8 -462 91 -851 140 -658 154
-757 146 -1045 -10 -364 -51 -473 -382 -1020 -277 -459 -355 -640 -386 -898
-23 -195 21 -391 146 -642 71 -144 143 -235 223 -282 66 -39 154 -38 237 3
122 59 299 265 479 558 185 300 284 584 416 1186 130 599 210 879 318 1118
217 478 650 959 1312 1457 225 169 380 276 1005 691 747 496 987 667 1271 902
495 409 853 851 1117 1378 175 349 351 884 393 1194 24 171 24 587 1 797 -76
684 -290 1194 -600 1429 -79 60 -202 117 -294 138 -87 19 -270 20 -363 1z
m385 -55 c437 -135 719 -657 827 -1530 8 -64 13 -219 13 -400 0 -339 -10 -425
-76 -667 -262 -957 -687 -1621 -1438 -2249 -275 -230 -534 -414 -1324 -938
-577 -383 -834 -562 -1062 -739 -551 -429 -943 -863 -1154 -1276 -150 -294
-214 -504 -365 -1186 -156 -707 -254 -973 -483 -1320 -252 -381 -420 -517
-568 -461 -68 27 -151 123 -217 252 -177 347 -201 582 -92 895 55 159 126 296
327 631 102 168 208 353 236 411 100 207 138 362 148 607 9 222 -14 421 -88
772 -154 737 -153 729 -153 1003 -1 180 2 226 22 322 45 225 131 423 278 646
227 341 533 669 1224 1313 719 671 1520 1521 2014 2139 153 191 211 274 386
550 318 502 476 720 655 903 213 220 362 309 570 342 90 14 239 4 320 -20z"/>
<path d="M10124 21737 c-95 -32 -169 -82 -269 -182 -109 -109 -187 -214 -322
-433 -161 -261 -224 -355 -368 -547 -415 -552 -893 -1082 -1862 -2068 -218
-221 -456 -466 -529 -544 -479 -513 -770 -905 -973 -1313 -136 -274 -175 -444
-135 -580 60 -203 319 -201 673 7 266 156 535 349 1056 758 503 396 623 483
1076 787 491 329 704 483 942 680 151 125 437 411 538 538 293 368 502 781
643 1275 82 289 106 455 106 742 0 574 -155 878 -455 890 -48 2 -96 -2 -121
-10z m230 -38 c68 -25 140 -89 185 -163 159 -265 185 -806 61 -1290 -192 -756
-544 -1341 -1099 -1828 -263 -231 -495 -403 -1016 -751 -472 -316 -581 -395
-1065 -776 -698 -550 -1113 -830 -1345 -909 -134 -46 -221 -49 -295 -12 -70
35 -99 93 -99 200 -2 264 257 752 673 1270 199 248 378 442 920 995 719 734
981 1011 1306 1380 393 447 709 857 900 1170 68 110 145 234 173 275 114 170
251 322 348 387 111 74 244 93 353 52z"/>
<path d="M9605 20046 c-66 -30 -157 -115 -264 -246 -47 -58 -113 -136 -146
-175 -33 -38 -116 -140 -185 -225 -68 -85 -172 -213 -231 -285 -232 -283 -300
-427 -235 -502 23 -27 28 -28 108 -27 109 1 191 23 313 83 135 67 239 147 376
289 218 227 380 494 453 746 32 108 36 247 10 302 -32 66 -110 82 -199 40z
m142 -38 c45 -36 39 -181 -12 -334 -127 -381 -478 -809 -790 -964 -133 -66
-328 -103 -363 -68 -35 35 13 153 115 290 133 176 688 850 781 950 119 125
214 170 269 126z"/>
<path d="M0 27784 c0 -13 34 -44 98 -90 53 -39 203 -147 332 -241 129 -93 426
-299 660 -458 1069 -725 1499 -1056 1925 -1481 408 -407 578 -661 657 -984 29
-114 31 -328 5 -449 -77 -359 -264 -680 -693 -1192 -487 -581 -609 -729 -766
-925 -986 -1236 -1621 -2294 -2057 -3429 -110 -289 -161 -443 -160 -488 0 -35
10 -13 63 138 525 1495 1255 2683 2691 4385 401 474 530 638 659 838 343 529
400 984 180 1425 -165 328 -597 787 -1168 1241 -342 272 -621 472 -1366 976
-173 117 -360 245 -415 284 -91 64 -602 435 -632 459 -10 7 -13 4 -13 -9z"/>
<path d="M41595 27403 c-165 -23 -344 -121 -481 -265 -78 -81 -116 -138 -169
-251 -84 -177 -110 -332 -102 -607 11 -400 109 -760 412 -1520 452 -1132 639
-1702 805 -2445 138 -617 240 -947 383 -1230 156 -311 350 -511 567 -586 84
-29 243 -32 340 -6 168 45 368 177 565 372 241 238 415 466 811 1060 195 293
275 420 272 435 -2 17 -62 -67 -233 -326 -554 -838 -830 -1170 -1154 -1385
-269 -178 -518 -196 -739 -52 -137 89 -299 287 -402 493 -145 289 -245 615
-400 1305 -91 404 -154 631 -284 1020 -126 376 -274 775 -491 1320 -265 665
-363 981 -410 1320 -77 558 58 959 405 1195 258 175 544 176 915 0 251 -118
452 -261 940 -670 471 -394 751 -613 1155 -902 248 -177 693 -479 698 -473 14
13 -28 46 -240 190 -608 413 -1008 716 -1633 1240 -404 339 -607 485 -846 609
-247 129 -491 186 -684 159z"/>
<path d="M0 26916 c0 -25 169 -145 903 -637 729 -489 921 -634 1152 -865 332
-331 498 -667 521 -1059 29 -489 -233 -1157 -734 -1870 -140 -199 -251 -344
-521 -680 -403 -500 -496 -618 -607 -765 -238 -318 -427 -608 -529 -815 -91
-185 -185 -421 -185 -464 1 -29 13 -7 64 119 127 311 165 386 304 610 152 244
371 544 655 898 103 128 271 337 374 464 547 680 837 1139 1033 1633 121 306
170 536 170 794 0 230 -30 389 -109 571 -87 203 -218 387 -411 581 -221 222
-415 371 -955 732 -458 306 -793 534 -965 657 -166 118 -160 115 -160 96z"/>
<path d="M41835 26407 c-163 -42 -291 -188 -302 -345 -13 -170 63 -404 282
-877 113 -245 189 -432 359 -888 277 -742 397 -1125 522 -1667 118 -515 228
-755 414 -903 39 -31 105 -73 147 -94 75 -37 80 -38 187 -38 107 0 113 1 173
34 134 72 243 200 428 501 60 96 185 294 280 440 374 578 510 849 561 1117 20
109 15 327 -10 417 -49 174 -158 353 -316 519 -133 139 -250 235 -558 456
-346 247 -414 299 -577 442 -611 535 -979 783 -1290 870 -90 25 -234 33 -300
16z m335 -77 c292 -96 642 -339 1215 -840 150 -131 286 -235 595 -455 271
-193 366 -270 505 -410 180 -180 282 -342 337 -531 20 -67 23 -102 23 -229 -1
-110 -6 -167 -18 -215 -80 -296 -199 -526 -544 -1055 -83 -127 -194 -302 -248
-390 -144 -236 -211 -330 -300 -422 -107 -109 -185 -148 -296 -148 -70 0 -84
4 -160 42 -187 94 -302 231 -399 478 -49 127 -86 257 -150 538 -64 275 -104
424 -185 687 -159 516 -503 1433 -670 1790 -211 449 -282 653 -292 831 -5 81
-3 102 14 140 46 100 124 175 221 211 75 28 231 19 352 -22z"/>
<path d="M0 26057 c0 -16 8 -22 505 -355 484 -324 657 -447 836 -590 315 -252
479 -465 525 -683 36 -169 -2 -396 -112 -671 -177 -446 -424 -827 -969 -1503
-580 -719 -785 -986 -785 -1024 0 -13 2 -22 4 -20 2 2 64 85 138 184 123 166
224 293 713 900 403 500 627 829 801 1178 139 277 220 510 244 701 51 400
-147 689 -785 1147 -131 94 -1102 749 -1110 749 -3 0 -5 -6 -5 -13z"/>
<path d="M0 25213 c0 -12 56 -54 165 -127 360 -238 541 -417 656 -651 71 -144
91 -230 92 -390 0 -85 -6 -155 -17 -203 -71 -317 -261 -651 -641 -1127 -212
-266 -255 -326 -255 -353 0 -22 6 -17 47 38 25 36 100 132 167 215 452 566
655 921 712 1245 22 126 15 323 -16 430 -61 212 -207 418 -431 605 -129 108
-479 340 -479 318z"/>
<path d="M23060 24854 c-465 -57 -913 -244 -1325 -553 -160 -120 -436 -388
-557 -541 -357 -451 -606 -1004 -684 -1515 -20 -135 -23 -448 -5 -590 82 -651
399 -1308 1075 -2230 160 -218 326 -434 721 -935 859 -1090 1175 -1523 1517
-2080 752 -1224 1109 -2395 1074 -3530 -44 -1468 -644 -3109 -1421 -3885 -150
-150 -275 -243 -430 -319 -196 -97 -348 -135 -742 -186 -359 -47 -533 -85
-714 -156 -300 -118 -511 -267 -621 -439 -97 -150 -141 -261 -258 -648 -108
-360 -161 -493 -255 -637 -84 -128 -152 -168 -354 -207 -304 -58 -383 -88
-485 -183 -45 -42 -74 -82 -102 -136 -37 -73 -39 -82 -38 -163 2 -118 30 -199
158 -453 133 -264 151 -316 151 -433 0 -130 -18 -166 -295 -590 -186 -285
-234 -364 -311 -510 -118 -224 -164 -383 -157 -543 3 -83 8 -107 36 -165 43
-93 115 -162 227 -217 75 -37 99 -44 165 -48 129 -7 249 31 422 135 289 174
481 342 1304 1137 399 385 547 507 709 586 311 150 861 325 1430 455 483 110
904 186 1845 335 710 112 1057 171 1361 229 1807 349 3413 343 4860 -19 1100
-275 2084 -741 2986 -1414 376 -280 640 -511 1028 -901 165 -166 322 -318 349
-339 97 -74 252 -141 399 -172 169 -35 452 -35 662 1 1111 192 2472 1101 3508
2345 1083 1300 1712 2771 1843 4313 31 360 22 870 -22 1267 -78 707 -306 1511
-604 2127 -189 391 -370 654 -616 894 -325 316 -670 489 -1140 571 -115 20
-163 23 -439 23 -330 0 -394 -5 -705 -56 -509 -83 -914 -195 -2130 -584 -979
-314 -1339 -421 -1825 -545 -1029 -263 -1817 -374 -2665 -373 -363 0 -538 9
-855 44 -1420 156 -2823 752 -3920 1665 -168 140 -571 543 -709 709 -1026
1234 -1495 2789 -1463 4845 9 571 37 977 120 1745 16 152 16 750 -1 890 -79
672 -285 1153 -643 1501 -251 244 -515 380 -877 455 -76 16 -145 21 -322 24
-124 2 -241 1 -260 -1z m418 -55 c620 -67 1107 -422 1388 -1013 184 -388 277
-910 260 -1466 -4 -118 -11 -258 -16 -310 -5 -52 -20 -207 -34 -345 -26 -260
-48 -527 -67 -800 -17 -259 -23 -1080 -10 -1345 50 -1011 216 -1826 531 -2610
79 -197 263 -573 370 -755 605 -1030 1492 -1831 2695 -2432 1396 -699 2850
-935 4505 -733 889 109 1728 316 3220 795 923 296 1168 372 1515 465 390 106
733 176 1060 217 201 25 643 25 810 -1 907 -138 1490 -700 1937 -1865 226
-589 371 -1197 434 -1821 21 -212 30 -780 15 -1006 -108 -1635 -799 -3216
-2000 -4578 -149 -169 -551 -572 -711 -712 -577 -506 -1164 -898 -1720 -1148
-808 -363 -1464 -416 -1865 -151 -35 23 -193 174 -375 356 -329 330 -525 507
-807 732 -1985 1582 -4436 2163 -7368 1746 -268 -38 -494 -76 -820 -138 -322
-61 -610 -110 -1190 -201 -1170 -183 -1732 -289 -2260 -425 -541 -140 -1062
-327 -1250 -449 -158 -103 -261 -195 -775 -691 -666 -642 -864 -813 -1138
-978 -134 -81 -247 -120 -348 -121 -76 -1 -86 2 -169 43 -106 52 -175 117
-213 199 -24 51 -27 68 -26 167 0 96 5 123 33 210 67 202 158 367 446 807 180
274 270 441 286 530 11 65 0 157 -32 251 -11 32 -67 153 -125 268 -132 265
-157 337 -152 439 4 93 30 149 104 229 80 87 179 133 354 166 335 62 405 96
503 239 96 142 172 333 286 719 173 584 290 743 690 938 222 109 440 164 865
219 357 46 505 81 685 160 318 139 599 407 898 855 622 932 1033 2351 1033
3558 -1 1304 -454 2554 -1447 3986 -288 416 -516 718 -1121 1486 -399 504
-593 756 -772 1001 -661 901 -978 1569 -1051 2214 -17 150 -7 464 20 605 98
524 371 1083 732 1500 370 428 818 731 1320 894 291 94 599 130 867 100z"/>
<path d="M23130 24143 c-502 -54 -1021 -361 -1392 -823 -247 -308 -461 -758
-525 -1104 -21 -113 -23 -405 -4 -521 90 -551 389 -1127 1029 -1980 177 -236
205 -272 617 -795 569 -722 751 -960 1012 -1325 1095 -1533 1619 -2826 1714
-4230 14 -209 6 -722 -15 -925 -109 -1065 -391 -1972 -911 -2925 -341 -627
-740 -1195 -1202 -1712 -129 -144 -470 -483 -613 -609 -427 -375 -844 -676
-1525 -1099 -148 -92 -313 -197 -365 -233 -111 -77 -206 -168 -216 -207 -32
-127 178 -186 608 -171 849 30 1900 242 3053 616 1353 439 2756 687 4250 750
508 21 1329 10 1855 -26 1500 -101 2618 -434 3735 -1112 572 -348 1123 -777
1787 -1393 185 -172 252 -220 380 -269 206 -80 513 -81 820 -4 994 249 2251
1259 3045 2450 797 1194 1200 2506 1170 3809 -15 618 -109 1162 -304 1758
-303 926 -667 1446 -1160 1655 -301 128 -731 145 -1276 52 -440 -75 -902 -202
-1902 -523 -922 -297 -1291 -409 -1728 -528 -1503 -408 -2748 -538 -3962 -414
-1284 132 -2576 601 -3685 1338 -1720 1143 -2722 2822 -3005 5037 -63 499 -80
795 -80 1425 1 648 19 995 95 1740 57 567 49 903 -31 1273 -99 456 -330 788
-653 937 -163 76 -407 110 -616 88z m383 -44 c451 -91 751 -449 870 -1039 44
-215 52 -314 51 -645 0 -265 -4 -346 -27 -555 -138 -1271 -137 -2366 4 -3345
207 -1435 708 -2612 1538 -3610 149 -179 565 -598 745 -751 1080 -916 2485
-1568 3891 -1804 1248 -210 2551 -136 4053 230 576 141 972 257 2042 600 866
277 1131 357 1490 449 770 196 1331 226 1717 90 379 -134 672 -431 927 -940
242 -483 447 -1144 535 -1729 85 -562 85 -1189 0 -1750 -179 -1186 -727 -2388
-1524 -3345 -765 -919 -1793 -1664 -2585 -1874 -196 -52 -290 -65 -465 -64
-140 0 -172 3 -259 27 -55 14 -136 44 -180 66 -91 45 -139 84 -393 320 -1456
1351 -2824 2057 -4483 2314 -715 111 -1702 163 -2584 137 -1634 -48 -3053
-288 -4529 -767 -1005 -326 -1924 -524 -2730 -589 -212 -17 -538 -20 -639 -5
-138 20 -218 61 -218 112 0 67 128 163 655 493 822 514 1261 851 1766 1355
418 417 744 817 1074 1315 501 759 864 1524 1080 2280 271 948 347 1894 224
2775 -151 1083 -589 2147 -1364 3320 -315 476 -622 888 -1315 1765 -630 797
-908 1176 -1137 1545 -470 760 -615 1337 -469 1871 80 294 247 634 435 884
352 468 830 779 1336 869 125 22 347 20 468 -5z"/>
<path d="M23123 23446 c-441 -84 -924 -492 -1140 -964 -97 -212 -98 -506 -3
-879 157 -615 605 -1371 964 -1628 107 -76 187 -108 283 -113 47 -3 103 1 130
7 128 33 252 121 299 213 55 108 57 136 49 708 -7 551 -2 714 35 1088 27 270
35 526 21 717 -35 489 -144 778 -316 839 -66 24 -228 30 -322 12z m292 -53
c155 -52 256 -300 296 -726 14 -158 7 -588 -15 -777 -33 -298 -40 -453 -36
-855 8 -759 7 -781 -18 -862 -41 -131 -164 -230 -326 -263 -217 -44 -477 153
-768 580 -284 416 -497 920 -574 1355 -26 147 -24 374 5 480 102 381 523 837
930 1006 180 75 393 101 506 62z"/>
<path d="M26404 13146 c-44 -20 -81 -72 -99 -141 -19 -73 -19 -128 0 -325 85
-896 -56 -1823 -409 -2685 -84 -205 -300 -635 -414 -826 -346 -577 -713 -1042
-1286 -1627 -143 -147 -285 -299 -314 -337 -79 -105 -132 -216 -132 -277 0
-110 62 -153 220 -151 121 1 191 17 435 98 1238 410 2527 620 4155 676 380 13
1492 7 1795 -10 1092 -62 1881 -200 2695 -470 1281 -427 2476 -1182 3625
-2292 84 -81 172 -158 196 -172 230 -135 609 -28 1082 305 589 416 1278 1168
1631 1781 81 141 410 823 543 1127 696 1583 765 2986 216 4370 -152 384 -317
650 -488 787 -155 124 -289 159 -585 150 -315 -9 -636 -66 -1115 -197 -326
-89 -539 -155 -1520 -470 -1259 -404 -2044 -609 -2853 -745 -595 -99 -1062
-142 -1652 -152 -1395 -22 -2608 200 -3740 684 -383 164 -611 280 -1110 563
-328 186 -498 274 -610 315 -91 33 -218 43 -266 21z m225 -38 c106 -32 285
-122 606 -305 528 -300 775 -425 1169 -592 743 -315 1521 -517 2351 -610 1014
-115 2068 -81 3105 100 850 148 1566 340 3070 824 829 266 1122 354 1475 440
406 100 655 137 925 136 202 0 282 -15 403 -78 93 -48 240 -193 322 -318 160
-240 336 -669 454 -1100 170 -619 214 -1277 131 -1930 -76 -594 -269 -1240
-575 -1926 -98 -218 -300 -641 -427 -892 -136 -268 -347 -578 -597 -877 -299
-356 -697 -742 -1016 -982 -491 -370 -911 -506 -1137 -368 -14 8 -120 104
-235 212 -553 520 -994 875 -1533 1233 -1356 900 -2739 1356 -4470 1475 -516
35 -1726 47 -2260 22 -1599 -76 -2790 -274 -3965 -661 -262 -87 -362 -111
-456 -111 -80 0 -131 16 -166 52 -37 39 -35 96 5 181 49 105 147 221 417 497
694 708 1146 1320 1509 2047 498 997 700 2023 601 3063 -21 220 -20 317 5 383
23 62 43 83 97 103 44 16 97 11 192 -18z"/>
<path d="M39010 12324 c-323 -47 -742 -155 -1725 -444 -2100 -617 -3336 -864
-4765 -951 -261 -16 -885 -16 -1080 0 -777 63 -1519 202 -2331 436 -525 152
-1122 367 -1456 526 -264 125 -377 166 -488 175 -61 5 -76 2 -115 -18 -95 -49
-114 -119 -135 -500 -31 -542 -72 -763 -233 -1238 -154 -453 -307 -824 -582
-1415 -205 -439 -263 -591 -276 -719 -12 -120 39 -198 154 -233 84 -26 376
-24 632 5 971 109 2186 169 3210 159 673 -7 1106 -31 1552 -88 1492 -188 2986
-744 4181 -1555 310 -211 571 -421 825 -666 177 -171 241 -220 366 -278 191
-90 440 -95 693 -14 345 110 784 433 1153 849 326 367 523 661 731 1090 355
732 576 1583 661 2550 19 216 16 825 -5 1012 -80 708 -272 1139 -572 1282
-110 53 -211 62 -395 35z m325 -36 c238 -77 426 -359 534 -800 266 -1092 14
-2840 -585 -4058 -138 -282 -261 -483 -429 -706 -396 -523 -825 -912 -1220
-1105 -214 -104 -357 -142 -545 -143 -142 0 -220 16 -337 69 -105 48 -152 84
-308 234 -526 505 -1140 926 -1905 1307 -1000 498 -2071 823 -3160 958 -401
50 -721 71 -1322 87 -943 25 -2251 -33 -3408 -152 -346 -36 -544 -41 -640 -15
-189 49 -207 169 -75 494 24 59 91 211 150 337 315 678 471 1056 631 1530 153
452 198 697 224 1225 15 297 28 371 76 437 65 87 215 67 509 -69 376 -174 640
-278 1065 -419 746 -248 1485 -424 2219 -529 710 -101 1424 -107 2316 -19
1164 114 2314 360 4020 859 1234 362 1604 457 1920 494 126 15 185 11 270 -16z"/>
<path d="M38220 11225 c-159 -36 -296 -99 -598 -279 -515 -305 -835 -399
-1702 -501 -704 -83 -820 -109 -1330 -302 -463 -175 -616 -213 -853 -213 -225
0 -370 40 -687 190 -546 258 -911 351 -1329 337 -198 -6 -321 -27 -612 -101
-520 -132 -743 -165 -986 -145 -217 17 -356 60 -672 206 -523 241 -805 323
-1108 323 -207 0 -370 -38 -562 -132 -91 -43 -116 -62 -191 -137 -235 -236
-431 -664 -447 -973 -7 -133 7 -210 54 -301 41 -77 94 -128 171 -164 45 -21
64 -24 125 -21 137 8 237 73 495 322 90 86 184 170 210 187 75 47 189 79 286
79 131 0 214 -30 465 -169 264 -145 367 -180 563 -188 152 -7 231 4 478 62
102 25 226 51 275 60 408 71 708 -12 1325 -365 477 -273 723 -366 1001 -377
336 -14 586 82 915 352 201 166 282 212 425 241 58 12 102 14 153 9 436 -42
780 -290 1071 -770 37 -60 172 -321 300 -580 278 -559 355 -687 542 -901 181
-208 453 -394 693 -474 252 -84 565 -83 825 5 110 37 292 133 405 213 118 84
313 277 407 402 322 433 699 1288 883 2005 95 369 130 607 137 920 7 321 -18
497 -98 686 -107 253 -286 406 -567 480 -103 28 -366 36 -462 14z m340 -40
c52 -7 127 -24 165 -36 405 -125 602 -504 582 -1114 -15 -455 -143 -1011 -372
-1615 -178 -470 -420 -956 -608 -1216 -376 -523 -900 -786 -1410 -709 -125 19
-282 71 -405 135 -281 145 -545 408 -740 735 -36 61 -163 308 -283 550 -288
583 -389 749 -577 946 -260 274 -587 420 -907 407 -186 -8 -273 -49 -510 -239
-178 -142 -266 -201 -379 -255 -189 -89 -388 -125 -573 -105 -258 29 -452 106
-898 356 -398 222 -512 277 -704 339 -153 50 -259 66 -425 66 -167 0 -258 -14
-543 -80 -116 -28 -259 -55 -318 -62 -189 -20 -359 16 -560 121 -60 32 -166
88 -235 124 -182 95 -239 112 -380 111 -103 0 -123 -4 -197 -31 -111 -42 -155
-74 -318 -233 -183 -177 -264 -243 -353 -287 -96 -48 -163 -50 -241 -8 -231
126 -246 467 -42 909 80 173 228 386 333 481 122 110 367 198 614 220 97 9
283 -11 422 -45 213 -53 386 -118 760 -289 329 -150 467 -188 718 -198 244
-10 424 18 925 142 417 104 594 126 834 105 344 -30 638 -120 1111 -341 334
-156 438 -183 694 -183 257 0 412 37 858 208 497 191 607 216 1297 301 688 84
954 139 1265 262 157 62 273 121 505 259 436 257 616 312 895 269z"/>
<path d="M37470 9779 c-36 -4 -177 -37 -315 -73 -447 -118 -711 -176 -1390
-306 -198 -37 -373 -74 -390 -80 -111 -43 -163 -155 -115 -249 22 -45 58 -69
185 -126 96 -44 429 -225 610 -333 261 -155 450 -284 659 -451 179 -142 255
-183 352 -189 89 -6 140 16 206 86 116 124 298 499 381 787 75 259 152 651
144 737 -13 151 -127 220 -327 197z m190 -72 c57 -30 85 -83 84 -157 -2 -72
-55 -342 -109 -555 -67 -262 -148 -474 -262 -680 -141 -255 -211 -314 -337
-286 -71 16 -138 58 -288 178 -265 213 -523 380 -943 611 -115 63 -264 141
-330 173 -67 32 -133 71 -149 88 -54 57 -33 132 50 178 27 15 158 44 439 98
657 125 966 194 1480 329 205 55 295 60 365 23z"/>
<path d="M572 10435 c-154 -20 -272 -41 -434 -77 l-138 -31 0 -34 c0 -18 5
-33 11 -33 6 0 54 11 107 24 128 32 277 60 437 82 180 24 535 25 700 1 331
-48 636 -151 1014 -342 254 -128 421 -226 1021 -595 773 -475 1096 -664 1575
-920 304 -163 869 -441 1100 -543 689 -302 1232 -450 1828 -498 194 -15 768
-7 982 15 758 76 1359 194 3620 706 1583 359 2426 543 2605 570 756 114 1654
16 2400 -262 604 -225 1030 -572 1181 -963 133 -342 72 -754 -161 -1094 -245
-357 -733 -736 -1510 -1173 -296 -166 -518 -282 -1315 -685 -720 -365 -930
-476 -1155 -611 -278 -167 -447 -290 -599 -437 -357 -344 -554 -715 -642
-1210 -27 -151 -38 -558 -20 -753 35 -382 128 -822 289 -1367 l59 -200 38 -3
c33 -3 37 -1 31 15 -14 35 -155 530 -185 648 -124 493 -174 838 -175 1205 0
236 9 337 49 535 105 522 406 970 875 1305 279 200 541 344 1510 835 764 387
969 493 1255 653 977 547 1506 1003 1693 1460 41 100 78 244 92 354 94 750
-525 1362 -1700 1682 -396 108 -807 164 -1260 173 -435 9 -673 -15 -1110 -108
-394 -85 -1443 -318 -2240 -499 -1368 -310 -1792 -403 -2305 -504 -1513 -297
-2321 -310 -3225 -51 -419 120 -837 292 -1440 591 -707 350 -1153 605 -2280
1301 -628 388 -941 554 -1285 683 -156 59 -390 120 -550 146 -150 23 -585 29
-743 9z"/>
<path d="M44915 10303 c-339 -98 -665 -217 -791 -288 -351 -199 -686 -521
-981 -943 -304 -435 -543 -900 -1021 -1987 -454 -1033 -614 -1331 -1006 -1880
-540 -758 -1134 -1348 -1799 -1788 -515 -341 -1134 -625 -1837 -842 -404 -124
-729 -209 -1515 -395 -1557 -367 -2242 -573 -3085 -927 -684 -287 -1152 -571
-1465 -888 -107 -108 -197 -223 -251 -318 l-26 -47 39 1 c37 0 40 3 93 86 103
159 324 372 559 537 445 312 1144 628 2056 929 560 185 1022 309 2120 567
1407 331 1997 519 2670 850 926 455 1676 1095 2365 2015 438 586 657 971 1032
1820 64 143 174 393 246 555 339 765 548 1170 807 1560 168 252 283 397 460
579 224 229 449 402 650 496 116 55 387 151 598 212 l167 48 0 33 c0 37 -7 38
-85 15z"/>
<path d="M633 9425 c-139 -20 -309 -57 -485 -107 -139 -39 -148 -43 -148 -66
0 -29 -7 -30 165 21 640 187 1035 166 1562 -83 235 -112 430 -225 1113 -645
812 -500 1186 -716 1780 -1025 1303 -680 2162 -966 3119 -1040 171 -13 689
-13 886 0 747 50 1501 184 3330 595 660 148 815 188 1297 329 1040 305 1444
386 1922 386 281 0 497 -35 714 -116 211 -79 355 -167 466 -284 284 -302 198
-717 -252 -1216 -246 -273 -565 -508 -957 -706 -1242 -625 -1640 -872 -2031
-1262 -281 -280 -456 -518 -609 -831 -163 -331 -254 -645 -302 -1035 -24 -199
-24 -689 0 -910 39 -351 102 -689 197 -1065 95 -371 91 -360 122 -363 l26 -3
-24 83 c-140 480 -252 1067 -285 1490 -15 201 -6 640 16 797 70 502 217 908
465 1285 130 197 234 323 429 516 377 375 734 602 1801 1145 457 232 557 289
723 413 436 323 743 695 852 1032 33 101 45 279 25 373 -42 204 -222 394 -491
521 -517 244 -1107 247 -2049 11 -203 -51 -335 -88 -957 -269 -339 -98 -471
-131 -1088 -270 -990 -223 -1521 -335 -2022 -426 -1472 -267 -2410 -251 -3436
59 -458 139 -889 318 -1532 636 -689 341 -1251 659 -2100 1185 -955 592 -1273
755 -1624 831 -128 28 -466 35 -618 14z"/>
<path d="M44820 9214 c-177 -62 -260 -106 -381 -204 -316 -254 -606 -671 -949
-1365 -147 -298 -187 -385 -541 -1185 -309 -699 -527 -1119 -775 -1498 -387
-589 -755 -1045 -1203 -1492 -453 -451 -850 -762 -1374 -1076 -579 -347 -1253
-626 -2078 -863 -486 -139 -1197 -312 -1919 -466 -920 -197 -1358 -332 -1775
-549 -266 -138 -565 -353 -664 -477 l-32 -39 28 0 c21 0 46 17 98 66 281 264
708 498 1215 665 290 95 570 165 1175 295 1198 257 2106 501 2729 733 1625
607 2826 1608 3878 3235 201 311 446 780 671 1286 57 129 187 422 288 650 476
1076 782 1593 1152 1947 58 55 149 129 200 165 81 54 121 73 266 123 153 54
171 62 171 83 0 12 -6 22 -12 21 -7 0 -83 -25 -168 -55z"/>
<path d="M1034 8089 c-326 -29 -641 -152 -962 -374 -46 -32 -72 -57 -72 -69 0
-16 2 -17 19 -5 300 219 562 341 862 401 95 19 146 23 309 23 209 0 273 -8
456 -55 246 -65 395 -137 799 -385 803 -494 1337 -795 2005 -1128 374 -187
569 -279 840 -395 735 -314 1465 -529 2130 -626 179 -27 1041 -123 1345 -150
608 -55 1081 -59 1415 -10 198 29 327 66 450 130 110 57 181 111 365 279 245
222 344 289 505 340 172 54 318 46 606 -36 197 -55 279 -69 408 -69 269 0 412
79 797 441 112 105 242 220 289 256 135 103 375 210 602 270 88 23 124 27 248
27 167 1 214 -10 294 -72 70 -52 100 -114 105 -214 11 -255 -224 -576 -612
-834 -264 -176 -452 -214 -952 -193 -391 17 -531 1 -700 -80 -185 -88 -271
-210 -539 -754 -89 -183 -168 -329 -211 -392 -115 -167 -179 -266 -227 -350
-234 -410 -372 -870 -417 -1390 -58 -665 33 -1610 240 -2475 44 -186 49 -200
63 -200 9 0 1 49 -31 183 -120 503 -187 918 -240 1477 -25 268 -25 888 0 1090
52 413 137 732 282 1052 75 165 150 296 293 508 105 155 151 239 291 520 91
184 197 382 235 440 122 187 229 269 421 323 78 21 91 22 495 19 257 -1 451 2
509 9 244 28 423 112 678 317 356 287 528 643 419 866 -106 216 -452 243 -894
70 -251 -98 -366 -175 -621 -415 -370 -349 -479 -422 -691 -465 -121 -24 -228
-15 -426 37 -328 86 -351 90 -484 91 -270 1 -427 -77 -750 -371 -182 -167
-278 -239 -382 -290 -313 -153 -879 -190 -1763 -115 -182 15 -1198 125 -1335
144 -753 105 -1592 361 -2434 741 -279 126 -849 410 -1156 575 -446 240 -890
498 -1440 837 -319 197 -414 249 -565 311 -186 75 -359 117 -560 136 -123 11
-178 11 -311 -1z"/>
<path d="M44910 7588 c-196 -165 -414 -412 -576 -653 -160 -238 -255 -418
-438 -834 -379 -859 -587 -1256 -927 -1766 -442 -665 -955 -1282 -1464 -1759
-276 -259 -313 -287 -735 -551 -813 -508 -1139 -773 -1262 -1022 -29 -59 -33
-78 -33 -143 0 -57 6 -85 22 -116 79 -149 314 -233 743 -265 195 -15 727 -6
1050 16 279 20 765 15 1060 -10 714 -60 1354 -199 1942 -420 99 -38 187 -65
208 -64 29 0 13 9 -90 50 -928 372 -2111 543 -3225 465 -319 -22 -829 -26
-1010 -7 -261 27 -467 84 -567 157 -70 50 -101 103 -106 178 -7 112 59 228
222 391 203 203 463 390 1076 775 469 295 510 327 915 734 489 490 890 988
1308 1621 328 497 534 896 932 1800 144 328 222 478 362 694 174 268 409 540
616 711 37 30 67 63 67 73 0 9 -1 17 -2 17 -2 0 -41 -32 -88 -72z"/>
<path d="M1080 7390 c-132 -16 -275 -62 -408 -129 -170 -86 -389 -262 -537
-431 -110 -125 -138 -163 -133 -185 2 -11 26 12 74 72 101 124 262 282 376
368 373 282 727 352 1112 218 142 -49 194 -78 583 -316 600 -368 993 -595
1493 -862 231 -124 823 -418 1021 -508 884 -403 1769 -655 2782 -792 451 -61
590 -69 1547 -95 407 -11 602 -26 835 -65 377 -63 563 -140 707 -293 108 -115
159 -241 178 -438 15 -157 2 -292 -69 -739 -106 -662 -137 -1035 -128 -1505 9
-450 64 -864 193 -1455 47 -214 53 -235 68 -235 11 0 9 21 -9 97 -179 762
-251 1386 -225 1949 17 378 44 612 130 1164 75 477 84 612 55 801 -27 180 -85
298 -201 409 -144 136 -316 206 -659 265 -288 50 -576 69 -1210 80 -512 9
-750 26 -1165 81 -1009 134 -1902 384 -2770 774 -253 114 -941 460 -1245 626
-444 242 -878 495 -1389 811 -349 216 -479 277 -667 316 -96 20 -255 28 -339
17z"/>
<path d="M44924 6560 c-142 -210 -213 -344 -355 -667 -321 -732 -543 -1181
-782 -1578 -323 -538 -985 -1437 -1567 -2130 -127 -151 -185 -235 -234 -335
-39 -83 -40 -88 -41 -190 0 -94 3 -111 27 -163 34 -72 114 -153 198 -199 146
-81 336 -128 694 -173 750 -93 1380 -268 2124 -592 6 -3 12 2 12 10 0 18 -27
31 -277 133 -577 233 -1182 389 -1843 474 -292 38 -405 60 -544 107 -299 102
-426 293 -348 524 34 98 105 205 258 389 489 585 1009 1275 1349 1790 353 534
558 925 957 1825 177 401 244 532 366 714 50 76 82 133 80 145 -2 15 -22 -7
-74 -84z"/>
<path d="M1125 6584 c-297 -66 -592 -325 -779 -684 -85 -163 -346 -759 -346
-789 1 -25 2 -24 20 11 11 20 83 179 160 355 78 175 162 356 186 403 166 311
395 539 646 639 207 83 426 74 641 -27 45 -21 201 -118 347 -214 621 -412
1370 -825 2223 -1230 1247 -590 2585 -924 3997 -998 386 -20 568 -42 775 -95
259 -65 438 -159 589 -310 195 -194 284 -432 317 -845 14 -182 7 -415 -28
-845 -36 -453 -38 -807 -5 -1015 36 -225 77 -423 143 -692 46 -189 64 -248 76
-248 11 0 14 6 9 23 -28 97 -122 498 -150 638 -89 447 -98 659 -51 1219 32
380 43 831 26 1003 -51 491 -220 783 -561 965 -268 144 -542 197 -1205 232
-883 47 -1862 231 -2715 512 -540 177 -908 332 -1585 668 -773 384 -1280 671
-1849 1048 -252 166 -381 237 -491 267 -87 24 -301 29 -390 9z"/>
<path d="M1285 5624 c-238 -51 -485 -270 -677 -600 -103 -179 -182 -361 -394
-909 -42 -110 -108 -268 -146 -352 -38 -83 -68 -160 -66 -170 9 -41 140 253
313 701 59 153 135 342 170 420 155 351 323 588 520 739 152 115 264 157 427
157 231 0 420 -79 1163 -490 1056 -584 1409 -760 1975 -987 1091 -438 2324
-709 3550 -778 326 -18 426 -29 557 -60 186 -44 308 -110 416 -225 162 -171
190 -372 118 -827 -46 -288 -65 -549 -65 -903 0 -282 2 -318 27 -483 32 -206
73 -420 123 -632 51 -218 53 -225 70 -225 10 0 13 6 10 18 -3 9 -23 91 -45
182 -90 371 -146 709 -161 960 -16 269 15 759 70 1105 40 256 47 393 26 515
-37 211 -162 370 -369 469 -150 72 -304 102 -607 121 -406 24 -506 32 -720 56
-1309 144 -2458 463 -3600 998 -306 144 -565 281 -1335 706 -442 244 -785 418
-897 454 -174 55 -319 68 -453 40z"/>
<path d="M44946 5023 c-100 -218 -348 -703 -454 -889 -218 -380 -291 -486
-589 -845 -277 -334 -399 -501 -496 -676 -109 -198 -157 -355 -157 -519 0
-166 39 -250 150 -326 96 -65 168 -86 545 -158 212 -40 555 -148 908 -286 77
-30 141 -54 143 -54 2 0 4 6 4 14 0 14 -17 21 -298 127 -332 124 -585 197
-843 243 -256 45 -377 85 -465 152 -161 124 -163 385 -4 710 100 205 231 389
560 784 251 302 342 433 536 767 209 359 517 983 512 1035 -2 24 -12 10 -52
-79z"/>
<path d="M27070 5040 c-1107 -50 -2093 -195 -3154 -461 -1583 -398 -2731 -934
-3615 -1685 -156 -133 -454 -431 -585 -584 -399 -466 -717 -1000 -968 -1625
-58 -145 -209 -586 -223 -653 -6 -31 -6 -32 27 -32 l33 0 64 198 c264 821 609
1459 1110 2052 129 153 426 452 580 583 859 733 1930 1243 3456 1646 1958 517
3987 638 5943 355 1891 -273 2911 -739 3102 -1416 110 -389 -101 -890 -602
-1434 -51 -56 -237 -252 -412 -435 -379 -396 -726 -768 -972 -1044 -190 -212
-415 -472 -428 -492 -5 -10 4 -13 36 -13 43 0 44 1 148 123 324 377 760 850
1394 1512 315 328 404 428 526 590 212 282 341 542 386 783 20 110 15 346 -11
437 -160 571 -914 1010 -2217 1289 -682 147 -1454 249 -2243 296 -234 14
-1137 21 -1375 10z"/>
<path d="M1440 4831 c-14 -5 -45 -18 -70 -31 -156 -78 -252 -234 -388 -625
-73 -212 -103 -278 -240 -525 -282 -510 -348 -747 -261 -928 30 -61 119 -154
197 -206 83 -54 210 -118 378 -189 423 -180 795 -386 1319 -730 708 -466 1404
-883 2185 -1309 421 -230 534 -288 566 -288 21 0 -42 38 -226 136 -925 493
-1713 960 -2515 1489 -281 186 -456 293 -660 405 -197 108 -483 248 -650 319
-199 85 -274 122 -371 187 -94 62 -171 142 -204 211 -71 150 -11 375 212 785
183 340 229 438 300 643 117 338 205 491 329 574 80 54 126 66 234 65 161 -2
333 -76 675 -291 96 -60 225 -137 285 -170 808 -445 1202 -639 1758 -862 627
-252 1299 -456 1962 -595 189 -39 290 -53 652 -91 473 -49 623 -75 843 -147
348 -114 542 -293 634 -586 43 -137 55 -280 60 -692 6 -467 30 -673 132 -1145
46 -213 53 -235 68 -235 10 0 7 28 -15 122 -44 187 -96 464 -125 658 -23 157
-27 220 -34 615 -10 534 -24 642 -110 821 -110 229 -300 374 -627 477 -205 65
-364 92 -814 137 -342 35 -480 55 -719 106 -791 170 -1633 448 -2385 789 -426
193 -1200 604 -1540 817 -228 143 -441 251 -549 278 -81 20 -235 26 -286 11z"/>
<path d="M27385 4453 c-130 -6 -449 -33 -675 -58 -899 -101 -1875 -294 -2900
-577 -1081 -297 -1857 -628 -2540 -1083 -319 -213 -543 -399 -811 -673 -495
-505 -856 -1093 -1122 -1828 -86 -236 -86 -234 -54 -234 23 0 28 10 72 137
142 417 376 899 595 1224 283 419 641 801 1057 1126 59 46 198 144 308 218
728 485 1536 815 2811 1149 1055 276 1983 442 3009 538 189 18 1099 18 1325 0
910 -71 1611 -206 2130 -409 549 -215 901 -553 987 -948 21 -95 21 -287 -1
-398 -71 -369 -324 -809 -753 -1310 -181 -211 -404 -447 -843 -892 -408 -413
-424 -430 -393 -433 29 -3 56 22 395 365 550 556 750 770 961 1028 378 462
580 817 668 1175 20 82 23 120 23 275 0 168 -2 186 -28 270 -92 301 -316 555
-668 757 -535 308 -1570 526 -2743 578 -201 9 -637 11 -810 3z"/>
<path d="M1748 3811 c-157 -50 -269 -183 -319 -379 -69 -272 54 -493 406 -729
109 -73 187 -117 460 -260 244 -128 263 -140 575 -345 922 -608 2001 -1220
3272 -1858 442 -222 481 -240 530 -240 51 0 42 5 -452 253 -1329 666 -2385
1267 -3376 1920 -260 170 -294 191 -574 337 -348 183 -493 277 -626 406 -203
199 -239 395 -117 637 82 165 230 247 419 234 233 -16 510 -137 1024 -447 186
-113 317 -183 485 -261 799 -369 1665 -660 2540 -853 318 -70 516 -98 945
-136 430 -38 580 -86 716 -232 131 -138 180 -338 204 -828 6 -118 17 -291 25
-385 24 -271 18 -453 -19 -594 l-13 -52 26 3 c22 3 27 10 38 58 33 143 34 340
4 725 -6 77 -15 227 -21 334 -23 435 -79 635 -218 782 -45 48 -85 78 -140 107
-147 75 -236 95 -597 127 -486 45 -647 70 -1065 166 -793 183 -1591 452 -2337
790 -237 107 -304 143 -588 314 -397 239 -674 369 -869 409 -103 22 -265 20
-338 -3z"/>
<path d="M27975 3773 c-1160 -33 -2391 -220 -3700 -564 -977 -257 -1573 -481
-2136 -805 -914 -525 -1593 -1272 -2012 -2214 -77 -174 -83 -190 -65 -190 7 0
28 37 47 83 59 142 185 397 265 537 223 389 463 698 788 1016 211 206 431 384
678 549 685 457 1386 733 2685 1059 1078 270 1988 415 3055 488 296 20 1139
17 1380 -5 823 -76 1319 -242 1590 -534 80 -86 123 -157 164 -270 29 -84 31
-95 31 -238 0 -171 -16 -247 -84 -406 -137 -316 -360 -585 -971 -1166 -441
-420 -908 -919 -1015 -1086 -15 -23 -15 -27 -2 -27 8 0 46 39 84 88 171 219
479 538 1224 1267 264 259 415 431 542 620 184 275 267 520 253 750 -7 127
-26 197 -82 312 -166 338 -632 569 -1354 672 -389 56 -871 78 -1365 64z"/>
<path d="M44976 3583 c-10 -20 -48 -87 -85 -148 -207 -337 -281 -535 -281
-749 0 -282 108 -493 316 -619 69 -41 74 -43 74 -23 0 8 -26 29 -57 47 -88 49
-186 153 -228 240 -56 119 -78 216 -78 349 -1 217 56 368 280 744 52 87 83
150 83 168 0 15 -1 28 -3 28 -2 0 -11 -17 -21 -37z"/>
<path d="M17145 3305 c-480 -85 -1126 -481 -1558 -955 -497 -546 -776 -1008
-867 -1435 -27 -125 -37 -396 -21 -541 6 -55 22 -162 37 -237 25 -132 27 -137
51 -137 22 0 25 3 19 28 -98 457 -93 743 21 1084 119 360 448 844 868 1277
422 435 998 783 1434 865 108 21 285 21 370 0 188 -45 349 -180 444 -370 41
-81 93 -242 116 -355 33 -165 41 -249 48 -484 14 -526 -61 -1147 -231 -1897
l-33 -148 23 0 c26 0 27 4 64 170 236 1058 289 1937 150 2475 -92 355 -277
576 -545 650 -84 23 -289 28 -390 10z"/>
<path d="M27885 3074 c-1148 -60 -2121 -209 -3280 -504 -880 -224 -1363 -389
-1845 -630 -769 -385 -1355 -917 -1759 -1595 -78 -131 -181 -325 -181 -340 0
-3 6 -5 13 -5 7 0 23 21 36 48 98 204 310 534 473 737 506 628 1203 1096 2118
1422 589 210 1655 479 2460 622 1112 197 2320 275 3009 195 471 -54 760 -181
849 -373 22 -47 26 -70 26 -141 -2 -219 -155 -457 -533 -825 -114 -109 -300
-294 -414 -410 -485 -490 -650 -684 -911 -1068 -147 -217 -141 -207 -123 -207
9 0 62 68 123 158 308 453 474 642 1142 1303 230 228 449 454 488 502 95 121
177 253 216 350 30 76 33 90 33 197 0 107 -2 119 -29 170 -86 164 -323 283
-683 345 -220 37 -366 47 -763 50 -217 1 -426 1 -465 -1z"/>
<path d="M16780 2442 c-304 -82 -655 -528 -844 -1071 -45 -129 -66 -241 -66
-350 1 -171 37 -271 181 -491 45 -69 99 -161 120 -205 41 -86 89 -239 89 -286
0 -27 15 -47 27 -35 9 9 -17 141 -42 215 -32 94 -83 191 -171 327 -180 277
-213 420 -154 669 31 131 87 281 165 440 186 379 429 657 653 747 50 20 74 23
187 23 237 -1 390 -66 451 -191 22 -45 26 -67 26 -133 -1 -146 -71 -317 -289
-695 -168 -292 -167 -289 -168 -421 0 -131 10 -156 116 -298 107 -143 128
-222 94 -366 -21 -86 -64 -164 -136 -245 -32 -37 -59 -69 -59 -71 0 -3 8 -5
18 -5 27 0 118 115 162 205 31 62 42 99 50 167 16 137 -2 194 -112 341 -91
123 -113 175 -113 272 0 75 3 87 46 175 25 53 87 166 138 252 120 206 202 371
242 488 29 83 33 108 34 200 0 98 -2 109 -30 158 -35 65 -71 96 -151 134 -124
58 -347 82 -464 50z"/>
<path d="M27425 2344 c-417 -28 -1069 -117 -1610 -219 -603 -114 -1518 -346
-2006 -509 -735 -245 -1269 -556 -1704 -991 -189 -188 -338 -374 -469 -583
-23 -37 -24 -42 -8 -42 10 0 30 21 50 54 102 171 359 478 533 637 512 468
1072 751 2022 1025 889 256 1795 445 2607 543 899 109 1291 72 1385 -132 34
-72 33 -136 -6 -250 -58 -173 -152 -322 -499 -787 -299 -401 -469 -652 -656
-967 -56 -94 -69 -123 -56 -123 11 1 48 52 107 152 148 250 355 553 617 904
434 582 541 773 542 964 0 123 -45 193 -159 249 -104 51 -220 71 -440 75 -104
2 -217 2 -250 0z"/>
<path d="M0 2037 c0 -15 13 -21 270 -127 266 -109 498 -213 765 -345 393 -194
539 -279 1005 -585 666 -437 1566 -980 1626 -980 19 0 -66 54 -292 186 -515
302 -836 501 -1359 844 -362 238 -528 336 -830 491 -327 168 -751 358 -1172
526 -7 3 -13 -1 -13 -10z"/>
<path d="M5355 1671 c-48 -12 -91 -38 -115 -68 -19 -24 -21 -37 -17 -84 15
-176 180 -307 607 -484 102 -43 239 -104 305 -137 429 -216 660 -291 848 -275
167 14 271 120 313 319 20 94 12 174 -25 253 -86 182 -301 279 -787 354 -109
17 -255 42 -324 56 -264 53 -380 67 -580 70 -107 3 -208 1 -225 -4z m545 -75
c85 -14 198 -34 250 -45 52 -11 174 -31 270 -46 424 -64 617 -130 742 -252 26
-25 56 -68 68 -95 38 -88 26 -216 -30 -328 -55 -109 -134 -154 -270 -153 -167
1 -301 46 -680 228 -140 68 -318 148 -394 180 -385 157 -548 278 -580 431 -10
44 25 82 89 100 76 21 341 11 535 -20z"/>
<path d="M26065 1414 c-16 -2 -88 -11 -160 -20 -569 -68 -1659 -344 -2181
-552 -493 -197 -933 -482 -1195 -774 -106 -119 -36 -77 110 65 460 449 1041
724 2096 992 939 239 1537 321 1728 237 51 -22 100 -77 117 -128 19 -58 6
-209 -29 -339 -33 -122 -51 -182 -174 -565 -98 -309 -104 -330 -85 -330 8 0
35 73 76 203 34 111 90 288 123 392 92 291 122 421 123 540 1 85 -3 106 -22
142 -29 56 -56 80 -122 111 -51 24 -66 26 -215 28 -88 1 -173 0 -190 -2z"/>
<path d="M0 1278 c0 -7 73 -44 163 -82 335 -143 757 -352 1047 -519 58 -33
229 -141 380 -240 502 -328 678 -437 706 -437 21 0 -18 29 -157 116 -101 64
-312 201 -469 304 -492 324 -884 535 -1484 796 -93 41 -173 74 -178 74 -4 0
-8 -6 -8 -12z"/>
<path d="M0 544 c0 -9 63 -44 164 -93 204 -98 378 -193 619 -338 114 -69 199
-113 215 -113 63 0 -602 378 -922 524 -57 26 -76 31 -76 20z"/>
<path d="M24910 475 c-185 -28 -577 -141 -845 -242 -140 -53 -366 -155 -445
-201 l-55 -32 48 0 c35 0 67 10 125 39 258 130 764 304 1079 371 140 30 375
38 462 15 186 -48 282 -162 298 -351 5 -65 8 -74 26 -74 18 0 19 5 15 88 -11
191 -107 316 -291 374 -83 26 -286 33 -417 13z"/>
</g>
</svg>
